<?xml version="1.0" encoding="UTF-8" standalone="no"?>
<!-- Created with Inkscape (http://www.inkscape.org/) -->
<svg
   xmlns:dc="http://purl.org/dc/elements/1.1/"
   xmlns:cc="http://creativecommons.org/ns#"
   xmlns:rdf="http://www.w3.org/1999/02/22-rdf-syntax-ns#"
   xmlns:svg="http://www.w3.org/2000/svg"
   xmlns="http://www.w3.org/2000/svg"
   xmlns:sodipodi="http://sodipodi.sourceforge.net/DTD/sodipodi-0.dtd"
   xmlns:inkscape="http://www.inkscape.org/namespaces/inkscape"
   width="64px"
   height="64px"
   id="svg2383"
   sodipodi:version="0.32"
   inkscape:version="0.46"
   sodipodi:docname="devaanagarii_kh.svg"
   inkscape:output_extension="org.inkscape.output.svg.inkscape">
  <defs
     id="defs2385">
    <inkscape:perspective
       sodipodi:type="inkscape:persp3d"
       inkscape:vp_x="0 : 32 : 1"
       inkscape:vp_y="0 : 1000 : 0"
       inkscape:vp_z="64 : 32 : 1"
       inkscape:persp3d-origin="32 : 21.333333 : 1"
       id="perspective2391" />
    <inkscape:perspective
       id="perspective2400"
       inkscape:persp3d-origin="372.04724 : 350.78739 : 1"
       inkscape:vp_z="744.09448 : 526.18109 : 1"
       inkscape:vp_y="0 : 1000 : 0"
       inkscape:vp_x="0 : 526.18109 : 1"
       sodipodi:type="inkscape:persp3d" />
    <inkscape:perspective
       id="perspective2415"
       inkscape:persp3d-origin="372.04724 : 350.78739 : 1"
       inkscape:vp_z="744.09448 : 526.18109 : 1"
       inkscape:vp_y="0 : 1000 : 0"
       inkscape:vp_x="0 : 526.18109 : 1"
       sodipodi:type="inkscape:persp3d" />
    <inkscape:perspective
       id="perspective2450"
       inkscape:persp3d-origin="372.04724 : 350.78739 : 1"
       inkscape:vp_z="744.09448 : 526.18109 : 1"
       inkscape:vp_y="0 : 1000 : 0"
       inkscape:vp_x="0 : 526.18109 : 1"
       sodipodi:type="inkscape:persp3d" />
  </defs>
  <sodipodi:namedview
     id="base"
     pagecolor="#ffffff"
     bordercolor="#666666"
     borderopacity="1.0"
     inkscape:pageopacity="0.0"
     inkscape:pageshadow="2"
     inkscape:zoom="5.5"
     inkscape:cx="27.518248"
     inkscape:cy="30.017422"
     inkscape:current-layer="layer1"
     showgrid="true"
     inkscape:document-units="px"
     inkscape:grid-bbox="true"
     inkscape:window-width="640"
     inkscape:window-height="688"
     inkscape:window-x="112"
     inkscape:window-y="112" />
  <metadata
     id="metadata2388">
    <rdf:RDF>
      <cc:Work
         rdf:about="">
        <dc:format>image/svg+xml</dc:format>
        <dc:type
           rdf:resource="http://purl.org/dc/dcmitype/StillImage" />
      </cc:Work>
    </rdf:RDF>
  </metadata>
  <g
     id="layer1"
     inkscape:label="Layer 1"
     inkscape:groupmode="layer">
    <path
       style="fill:#000000"
       d="M 37.311174,54.001644 C 33.886855,53.432875 29.484801,51.788657 25.793533,49.699669 C 23.0729,48.159988 20.747988,46.082373 12.124335,37.484421 C 5.9350657,31.3136 1.6217497,26.679788 1.4573743,26.024868 C 0.24557662,24.210167 0.34871794,23.310342 1.5105627,21.22601 C 3.7690208,19.132942 6.8632873,20.200146 10.710961,24.399203 L 13.269342,27.191223 L 13.269342,17.490389 L 13.269342,7.789555 L 10.580385,7.789555 L 7.8914305,7.789555 L 5.0112559,4.8871404 C 3.4271611,3.2908128 2.1310822,1.844982 2.1310822,1.6741814 C 2.1310822,1.5033825 14.618599,1.363637 29.881119,1.363637 L 57.631154,1.363637 L 60.606935,4.3623989 L 63.582719,7.3611608 L 58.453476,7.3658759 C 55.632389,7.3684684 52.573623,7.4945749 51.656211,7.6461108 L 49.988193,7.9216321 L 50.140038,21.028727 C 50.223554,28.237628 50.251249,38.564534 50.201577,43.977406 L 50.111271,53.81899 L 47.112509,50.843207 L 44.113747,47.867424 L 44.113747,44.076657 L 44.113747,40.285892 L 41.824643,40.571896 C 33.130729,41.658128 23.769396,32.245979 25.050014,23.706212 C 26.175108,16.203546 33.861947,12.96935 41.437267,16.811364 C 42.791525,17.498208 43.947745,18.062614 44.006648,18.065599 C 44.065553,18.068583 44.113747,15.757694 44.113747,12.93029 L 44.113747,7.789555 L 31.92863,7.789555 L 19.743514,7.789555 L 19.612289,20.125877 C 19.466135,33.865428 19.43641,34.011623 16.480597,35.528046 L 14.989067,36.293246 L 18.734445,40.148852 C 21.515376,43.011625 23.202692,44.357173 25.287045,45.374229 C 28.30967,46.849115 32.693901,48.042107 35.128951,48.052311 C 36.422148,48.05773 37.054772,48.476798 39.519995,50.961059 C 41.104092,52.557386 42.40017,54.003216 42.40017,54.174018 C 42.40017,54.566955 40.282928,54.495242 37.311174,54.001644 z M 38.879674,33.684701 C 40.731461,32.911164 42.648382,31.199975 43.509404,29.551852 C 43.862216,28.87651 44.113747,27.144367 44.113747,25.390079 C 44.113747,21.846646 43.757915,21.498181 40.139543,21.498181 C 35.453983,21.498181 31.731159,24.841771 31.354093,29.388678 C 31.11291,32.297039 31.462601,33.799248 32.440289,34.054771 C 34.128249,34.495926 37.385833,34.308712 38.879674,33.684701 z M 9.1746302,28.204612 C 8.7924361,26.41928 8.7097702,26.367869 7.6961895,27.285146 L 6.8301272,28.068924 L 7.755835,29.054295 C 8.9335968,30.307965 9.5463466,29.941003 9.1746302,28.204612 z"
       id="path2456"
       sodipodi:nodetypes="csscccccccccscccccccccccccccsssccccccccssssccssssscccccc" />
  </g>
</svg>
