<?xml version="1.0" encoding="UTF-8" standalone="no"?>
<!-- Created with Inkscape (http://www.inkscape.org/) -->
<svg
   xmlns:dc="http://purl.org/dc/elements/1.1/"
   xmlns:cc="http://creativecommons.org/ns#"
   xmlns:rdf="http://www.w3.org/1999/02/22-rdf-syntax-ns#"
   xmlns:svg="http://www.w3.org/2000/svg"
   xmlns="http://www.w3.org/2000/svg"
   xmlns:sodipodi="http://sodipodi.sourceforge.net/DTD/sodipodi-0.dtd"
   xmlns:inkscape="http://www.inkscape.org/namespaces/inkscape"
   width="64px"
   height="64px"
   id="svg2383"
   sodipodi:version="0.32"
   inkscape:version="0.46"
   sodipodi:docname="devaanagarii_li.svg"
   inkscape:output_extension="org.inkscape.output.svg.inkscape">
  <defs
     id="defs2385">
    <inkscape:perspective
       sodipodi:type="inkscape:persp3d"
       inkscape:vp_x="0 : 32 : 1"
       inkscape:vp_y="0 : 1000 : 0"
       inkscape:vp_z="64 : 32 : 1"
       inkscape:persp3d-origin="32 : 21.333333 : 1"
       id="perspective2391" />
    <inkscape:perspective
       id="perspective2426"
       inkscape:persp3d-origin="372.04724 : 350.78739 : 1"
       inkscape:vp_z="744.09448 : 526.18109 : 1"
       inkscape:vp_y="0 : 1000 : 0"
       inkscape:vp_x="0 : 526.18109 : 1"
       sodipodi:type="inkscape:persp3d" />
    <inkscape:perspective
       id="perspective2388"
       inkscape:persp3d-origin="372.04724 : 350.78739 : 1"
       inkscape:vp_z="744.09448 : 526.18109 : 1"
       inkscape:vp_y="0 : 1000 : 0"
       inkscape:vp_x="0 : 526.18109 : 1"
       sodipodi:type="inkscape:persp3d" />
    <inkscape:perspective
       id="perspective2423"
       inkscape:persp3d-origin="372.04724 : 350.78739 : 1"
       inkscape:vp_z="744.09448 : 526.18109 : 1"
       inkscape:vp_y="0 : 1000 : 0"
       inkscape:vp_x="0 : 526.18109 : 1"
       sodipodi:type="inkscape:persp3d" />
    <inkscape:perspective
       id="perspective2478"
       inkscape:persp3d-origin="372.04724 : 350.78739 : 1"
       inkscape:vp_z="744.09448 : 526.18109 : 1"
       inkscape:vp_y="0 : 1000 : 0"
       inkscape:vp_x="0 : 526.18109 : 1"
       sodipodi:type="inkscape:persp3d" />
    <inkscape:perspective
       id="perspective2513"
       inkscape:persp3d-origin="372.04724 : 350.78739 : 1"
       inkscape:vp_z="744.09448 : 526.18109 : 1"
       inkscape:vp_y="0 : 1000 : 0"
       inkscape:vp_x="0 : 526.18109 : 1"
       sodipodi:type="inkscape:persp3d" />
    <inkscape:perspective
       id="perspective2614"
       inkscape:persp3d-origin="372.04724 : 350.78739 : 1"
       inkscape:vp_z="744.09448 : 526.18109 : 1"
       inkscape:vp_y="0 : 1000 : 0"
       inkscape:vp_x="0 : 526.18109 : 1"
       sodipodi:type="inkscape:persp3d" />
    <inkscape:perspective
       id="perspective2649"
       inkscape:persp3d-origin="372.04724 : 350.78739 : 1"
       inkscape:vp_z="744.09448 : 526.18109 : 1"
       inkscape:vp_y="0 : 1000 : 0"
       inkscape:vp_x="0 : 526.18109 : 1"
       sodipodi:type="inkscape:persp3d" />
    <inkscape:perspective
       id="perspective2684"
       inkscape:persp3d-origin="372.04724 : 350.78739 : 1"
       inkscape:vp_z="744.09448 : 526.18109 : 1"
       inkscape:vp_y="0 : 1000 : 0"
       inkscape:vp_x="0 : 526.18109 : 1"
       sodipodi:type="inkscape:persp3d" />
  </defs>
  <sodipodi:namedview
     id="base"
     pagecolor="#ffffff"
     bordercolor="#666666"
     borderopacity="1.0"
     inkscape:pageopacity="0.0"
     inkscape:pageshadow="2"
     inkscape:zoom="5.5"
     inkscape:cx="43.225973"
     inkscape:cy="29.230444"
     inkscape:current-layer="layer1"
     showgrid="true"
     inkscape:document-units="px"
     inkscape:grid-bbox="true"
     inkscape:window-width="640"
     inkscape:window-height="688"
     inkscape:window-x="140"
     inkscape:window-y="140" />
  <metadata
     id="metadata2388">
    <rdf:RDF>
      <cc:Work
         rdf:about="">
        <dc:format>image/svg+xml</dc:format>
        <dc:type
           rdf:resource="http://purl.org/dc/dcmitype/StillImage" />
      </cc:Work>
    </rdf:RDF>
  </metadata>
  <g
     id="layer1"
     inkscape:label="Layer 1"
     inkscape:groupmode="layer">
    <path
       style="fill:#000000"
       d="M 42.194097,62.38762 C 39.269442,61.335685 38.601122,60.890444 35.080369,57.648369 C 30.924829,53.821752 29.232368,47.73527 31.516416,44.831574 C 32.078166,44.117425 34.638471,41.389604 37.205983,38.76975 C 43.323195,32.527829 44.376807,30.997113 44.67223,27.922567 C 44.898273,25.570108 44.822985,25.375727 43.563368,25.059583 C 39.958168,24.154734 34.22831,27.426329 29.959146,32.827226 L 27.96095,35.355135 L 25.321926,32.519673 C 21.829186,28.766944 21.79419,28.690927 22.830957,27.10862 C 23.569542,25.981399 23.600693,25.662576 23.008893,25.287582 C 22.005213,24.651604 20.974726,24.706218 18.195352,25.542686 C 8.4699683,28.469597 6.4926009,39.771941 13.785173,50.750634 C 14.655287,52.060558 15.814444,53.60865 16.361076,54.190839 C 16.90771,54.773026 17.804592,55.872949 18.354148,56.635113 C 19.339189,58.00124 19.337715,58.034975 18.250081,59.016793 C 17.158716,60.001982 17.126703,59.989889 15.281653,57.895672 C 8.9204252,50.67539 5.0181752,42.939583 3.3762654,38.152448 C 1.7343554,33.365312 1.8524561,30.681331 3.4682115,26.536896 C 5.0839669,22.392461 8.185523,19.605701 13.389588,18.404458 C 15.692348,17.872918 16.518182,17.916992 18.909138,18.699034 C 20.455535,19.204834 22.742999,20.352782 23.992394,21.250028 L 26.264018,22.881386 L 27.453326,21.793951 C 28.995369,20.383998 31.261732,19.25558 34.06757,18.50073 L 36.316935,17.895588 L 36.316935,12.887999 L 36.316935,7.8804103 L 22.937779,7.8804103 L 9.5586228,7.8804103 L 6.1489972,4.4402075 L 2.7393734,1.0000037 L 28.933734,1.0000037 L 55.128093,1.0000037 L 58.671301,4.4402075 L 62.214504,7.8804103 L 52.705926,7.8804103 L 43.197341,7.8804103 L 43.197341,13.741273 L 43.197341,19.602137 L 46.069948,22.227536 C 51.206108,26.921698 52.894788,32.459728 50.652023,37.254453 C 49.62644,39.446999 49.165687,39.987716 41.751754,47.699371 C 37.812759,51.796537 37.32613,52.517057 37.473643,54.033695 C 37.619485,55.533147 37.889657,55.803638 39.656078,56.218723 C 42.617115,56.914527 45.642262,55.541901 49.961918,51.542559 L 53.609303,48.16564 L 56.914796,51.500779 L 60.220288,54.835919 L 56.534045,58.177102 C 50.839779,63.338344 47.535115,64.308661 42.194097,62.38762 z"
       id="path2690"
       sodipodi:nodetypes="cssssscccsssssssszzssccccccccccccccccccccsssscccccc" />
  </g>
</svg>
