<?xml version="1.0" encoding="UTF-8" standalone="no"?>
<!-- Created with Inkscape (http://www.inkscape.org/) -->
<svg
   xmlns:dc="http://purl.org/dc/elements/1.1/"
   xmlns:cc="http://creativecommons.org/ns#"
   xmlns:rdf="http://www.w3.org/1999/02/22-rdf-syntax-ns#"
   xmlns:svg="http://www.w3.org/2000/svg"
   xmlns="http://www.w3.org/2000/svg"
   xmlns:sodipodi="http://sodipodi.sourceforge.net/DTD/sodipodi-0.dtd"
   xmlns:inkscape="http://www.inkscape.org/namespaces/inkscape"
   width="64px"
   height="64px"
   id="svg2383"
   sodipodi:version="0.32"
   inkscape:version="0.46"
   sodipodi:docname="devaanagarii_o.svg"
   inkscape:output_extension="org.inkscape.output.svg.inkscape">
  <defs
     id="defs2385">
    <inkscape:perspective
       sodipodi:type="inkscape:persp3d"
       inkscape:vp_x="0 : 32 : 1"
       inkscape:vp_y="0 : 1000 : 0"
       inkscape:vp_z="64 : 32 : 1"
       inkscape:persp3d-origin="32 : 21.333333 : 1"
       id="perspective2391" />
    <inkscape:perspective
       id="perspective2426"
       inkscape:persp3d-origin="372.04724 : 350.78739 : 1"
       inkscape:vp_z="744.09448 : 526.18109 : 1"
       inkscape:vp_y="0 : 1000 : 0"
       inkscape:vp_x="0 : 526.18109 : 1"
       sodipodi:type="inkscape:persp3d" />
    <inkscape:perspective
       id="perspective2388"
       inkscape:persp3d-origin="372.04724 : 350.78739 : 1"
       inkscape:vp_z="744.09448 : 526.18109 : 1"
       inkscape:vp_y="0 : 1000 : 0"
       inkscape:vp_x="0 : 526.18109 : 1"
       sodipodi:type="inkscape:persp3d" />
    <inkscape:perspective
       id="perspective2423"
       inkscape:persp3d-origin="372.04724 : 350.78739 : 1"
       inkscape:vp_z="744.09448 : 526.18109 : 1"
       inkscape:vp_y="0 : 1000 : 0"
       inkscape:vp_x="0 : 526.18109 : 1"
       sodipodi:type="inkscape:persp3d" />
    <inkscape:perspective
       id="perspective2478"
       inkscape:persp3d-origin="372.04724 : 350.78739 : 1"
       inkscape:vp_z="744.09448 : 526.18109 : 1"
       inkscape:vp_y="0 : 1000 : 0"
       inkscape:vp_x="0 : 526.18109 : 1"
       sodipodi:type="inkscape:persp3d" />
    <inkscape:perspective
       id="perspective2513"
       inkscape:persp3d-origin="372.04724 : 350.78739 : 1"
       inkscape:vp_z="744.09448 : 526.18109 : 1"
       inkscape:vp_y="0 : 1000 : 0"
       inkscape:vp_x="0 : 526.18109 : 1"
       sodipodi:type="inkscape:persp3d" />
    <inkscape:perspective
       id="perspective2614"
       inkscape:persp3d-origin="372.04724 : 350.78739 : 1"
       inkscape:vp_z="744.09448 : 526.18109 : 1"
       inkscape:vp_y="0 : 1000 : 0"
       inkscape:vp_x="0 : 526.18109 : 1"
       sodipodi:type="inkscape:persp3d" />
    <inkscape:perspective
       id="perspective2649"
       inkscape:persp3d-origin="372.04724 : 350.78739 : 1"
       inkscape:vp_z="744.09448 : 526.18109 : 1"
       inkscape:vp_y="0 : 1000 : 0"
       inkscape:vp_x="0 : 526.18109 : 1"
       sodipodi:type="inkscape:persp3d" />
    <inkscape:perspective
       id="perspective2684"
       inkscape:persp3d-origin="372.04724 : 350.78739 : 1"
       inkscape:vp_z="744.09448 : 526.18109 : 1"
       inkscape:vp_y="0 : 1000 : 0"
       inkscape:vp_x="0 : 526.18109 : 1"
       sodipodi:type="inkscape:persp3d" />
    <inkscape:perspective
       id="perspective2719"
       inkscape:persp3d-origin="372.04724 : 350.78739 : 1"
       inkscape:vp_z="744.09448 : 526.18109 : 1"
       inkscape:vp_y="0 : 1000 : 0"
       inkscape:vp_x="0 : 526.18109 : 1"
       sodipodi:type="inkscape:persp3d" />
    <inkscape:perspective
       id="perspective2754"
       inkscape:persp3d-origin="372.04724 : 350.78739 : 1"
       inkscape:vp_z="744.09448 : 526.18109 : 1"
       inkscape:vp_y="0 : 1000 : 0"
       inkscape:vp_x="0 : 526.18109 : 1"
       sodipodi:type="inkscape:persp3d" />
    <inkscape:perspective
       id="perspective2789"
       inkscape:persp3d-origin="372.04724 : 350.78739 : 1"
       inkscape:vp_z="744.09448 : 526.18109 : 1"
       inkscape:vp_y="0 : 1000 : 0"
       inkscape:vp_x="0 : 526.18109 : 1"
       sodipodi:type="inkscape:persp3d" />
    <inkscape:perspective
       id="perspective2824"
       inkscape:persp3d-origin="372.04724 : 350.78739 : 1"
       inkscape:vp_z="744.09448 : 526.18109 : 1"
       inkscape:vp_y="0 : 1000 : 0"
       inkscape:vp_x="0 : 526.18109 : 1"
       sodipodi:type="inkscape:persp3d" />
  </defs>
  <sodipodi:namedview
     id="base"
     pagecolor="#ffffff"
     bordercolor="#666666"
     borderopacity="1.0"
     inkscape:pageopacity="0.0"
     inkscape:pageshadow="2"
     inkscape:zoom="6.32"
     inkscape:cx="31.797009"
     inkscape:cy="35.866562"
     inkscape:current-layer="layer1"
     showgrid="true"
     inkscape:document-units="px"
     inkscape:grid-bbox="true"
     inkscape:window-width="640"
     inkscape:window-height="688"
     inkscape:window-x="140"
     inkscape:window-y="140" />
  <metadata
     id="metadata2388">
    <rdf:RDF>
      <cc:Work
         rdf:about="">
        <dc:format>image/svg+xml</dc:format>
        <dc:type
           rdf:resource="http://purl.org/dc/dcmitype/StillImage" />
      </cc:Work>
    </rdf:RDF>
  </metadata>
  <g
     id="layer1"
     inkscape:label="Layer 1"
     inkscape:groupmode="layer">
    <path
       style="fill:#000000"
       d="M 16.071482,52.227259 C 12.264479,51.209981 9.0861099,48.976384 3.6706057,43.512561 L 0.70050852,40.515964 L 1.3717973,39.844679 L 2.0430856,39.173388 L 5.6655134,42.759354 C 9.4744909,46.529991 11.062998,47.547106 14.124865,48.175831 C 17.48245,48.865283 20.760801,47.157621 22.441394,43.843831 C 23.970165,40.829403 23.659639,36.830035 21.763587,35.114133 C 21.365401,34.753778 21.019066,34.646446 20.896159,34.845313 C 20.783634,35.027382 19.849761,35.49131 18.820887,35.876263 L 16.950208,36.576171 L 14.857095,34.501663 L 12.763979,32.427156 L 14.199624,32.008542 C 16.013209,31.479723 18.628984,29.198779 19.420741,27.455749 C 20.527581,25.019074 20.068241,21.740781 18.521226,21.035914 C 16.350844,20.047021 12.666716,20.944564 10.282765,23.043003 L 8.7590949,24.384188 L 7.8675297,23.597234 C 6.1061621,22.042533 4.8207293,20.686628 4.8207293,20.383399 C 4.8207293,19.708537 7.4903336,17.720075 9.3273749,17.026611 C 11.793751,16.09558 14.856145,16.222269 17.05775,17.346412 C 19.051002,18.364171 22.376838,21.765396 23.371213,23.802991 C 24.470972,26.056529 24.510609,29.756833 23.457561,31.863934 L 22.736477,33.306785 L 24.119369,34.733063 L 25.502261,36.159342 L 29.555841,33.025097 L 33.60942,29.890852 L 33.60942,25.275125 L 33.60942,20.659398 L 31.862613,20.659398 C 30.15194,20.659398 30.071706,20.614904 27.984045,18.508518 L 25.852284,16.35764 L 37.838013,16.35764 C 44.430163,16.35764 49.823741,16.294929 49.823741,16.218285 C 49.823741,16.141639 49.108528,14.838703 48.234378,13.32287 C 47.360227,11.807037 46.541411,10.294488 46.41478,9.9616489 C 45.794538,8.3313651 43.667676,5.6514498 42.659891,5.23037 C 40.480495,4.3197602 37.878384,4.8182726 36.03822,6.4989525 L 35.323427,7.1517955 L 33.281337,5.1097055 C 31.296812,3.1251811 31.255836,3.0492826 31.827787,2.4172836 C 33.657502,0.39547174 38.111526,-0.001935037 41.167349,1.5839682 C 44.620215,3.3759255 46.93203,6.0501784 50.488714,12.366699 L 52.642756,16.192188 L 55.968991,16.2858 L 59.295221,16.379414 L 61.416191,18.519405 L 63.53716,20.659398 L 58.831331,20.659398 L 54.1255,20.659398 L 54.1255,36.450528 L 54.1255,52.241657 L 51.974621,50.109898 L 49.823741,47.978139 L 49.823741,34.318768 L 49.823741,20.659398 L 43.86746,20.659398 L 37.911179,20.659398 L 37.90755,36.62554 L 37.903923,52.591682 L 35.75667,50.376564 L 33.60942,48.161442 L 33.60942,42.668938 L 33.60942,37.176433 L 31.375816,38.957208 C 30.147333,39.936636 28.80717,40.946692 28.397675,41.201779 C 27.784202,41.583935 27.65314,41.961369 27.65314,43.345895 C 27.65314,47.522268 25.29392,51.051322 21.741586,52.188726 C 19.622629,52.867187 18.494978,52.874846 16.071482,52.227259 z"
       id="path2830" />
  </g>
</svg>
