<?xml version="1.0" encoding="utf-8"?>
<!-- Generator: Adobe Illustrator 15.1.0, SVG Export Plug-In . SVG Version: 6.00 Build 0)  -->
<!DOCTYPE svg PUBLIC "-//W3C//DTD SVG 1.0//EN" "http://www.w3.org/TR/2001/REC-SVG-20010904/DTD/svg10.dtd">
<svg version="1.0" id="Layer_1" xmlns="http://www.w3.org/2000/svg" xmlns:xlink="http://www.w3.org/1999/xlink" x="0px" y="0px"
	 width="300px" height="282.378px" viewBox="0 0 300 282.378" enable-background="new 0 0 300 282.378" xml:space="preserve">
<g>
	<path d="M300,0v31.175h-67.319v251.203h-9.035l-25.753-30.27v-99.397c-10.548,4.221-26.509,6.326-47.892,6.326
		c0,2.71,0.451,6.776,1.355,12.197c0,17.473-5.648,31.478-16.943,42.018c-11.296,10.548-25.832,15.813-43.6,15.813
		c-25.004,0-46.084-11.592-63.253-34.789C12.496,174.398,3.311,151.059,0,124.247h11.295c3.614,19.28,11.14,35.849,22.591,49.699
		c13.25,16.266,28.915,24.396,46.988,24.396c12.043,0,22.365-3.686,30.949-11.068c8.584-7.378,12.876-16.943,12.876-28.689
		c0-11.747-4.673-21.236-14.005-28.464c-9.34-7.229-20.035-10.844-32.079-10.844c-5.125,0-13.554,1.208-25.301,3.615L28.916,93.976
		c20.479-1.503,38.552-5.267,54.217-11.295c23.494-8.733,35.241-20.932,35.241-36.597c0-8.429-3.466-15.058-10.392-19.88
		c-6.932-4.814-14.761-7.229-23.494-7.229c-16.569,0-38.107,7.384-64.608,22.139L0,12.651C20.176,4.221,40.36,0,60.542,0
		c20.783,0,38.1,5.125,51.958,15.361c15.961,11.451,23.946,27.108,23.946,46.988c0.296,21.39-13.554,37.5-41.566,48.343
		c23.79,11.146,43.973,16.716,60.542,16.716c15.658,0,26.657-3.084,32.981-9.262c6.326-6.17,9.489-17.091,9.489-32.756V31.175
		h-33.435L140.061,0H300z"/>
</g>
</svg>
