<?xml version="1.0" encoding="UTF-8" standalone="no"?>
<!-- Created with Inkscape (http://www.inkscape.org/) -->
<svg
   xmlns:dc="http://purl.org/dc/elements/1.1/"
   xmlns:cc="http://creativecommons.org/ns#"
   xmlns:rdf="http://www.w3.org/1999/02/22-rdf-syntax-ns#"
   xmlns:svg="http://www.w3.org/2000/svg"
   xmlns="http://www.w3.org/2000/svg"
   xmlns:sodipodi="http://sodipodi.sourceforge.net/DTD/sodipodi-0.dtd"
   xmlns:inkscape="http://www.inkscape.org/namespaces/inkscape"
   width="64px"
   height="64px"
   id="svg2383"
   sodipodi:version="0.32"
   inkscape:version="0.46"
   sodipodi:docname="devaanagarii_ah.svg"
   inkscape:output_extension="org.inkscape.output.svg.inkscape">
  <defs
     id="defs2385">
    <inkscape:perspective
       sodipodi:type="inkscape:persp3d"
       inkscape:vp_x="0 : 32 : 1"
       inkscape:vp_y="0 : 1000 : 0"
       inkscape:vp_z="64 : 32 : 1"
       inkscape:persp3d-origin="32 : 21.333333 : 1"
       id="perspective2391" />
    <inkscape:perspective
       id="perspective2426"
       inkscape:persp3d-origin="372.04724 : 350.78739 : 1"
       inkscape:vp_z="744.09448 : 526.18109 : 1"
       inkscape:vp_y="0 : 1000 : 0"
       inkscape:vp_x="0 : 526.18109 : 1"
       sodipodi:type="inkscape:persp3d" />
    <inkscape:perspective
       id="perspective2388"
       inkscape:persp3d-origin="372.04724 : 350.78739 : 1"
       inkscape:vp_z="744.09448 : 526.18109 : 1"
       inkscape:vp_y="0 : 1000 : 0"
       inkscape:vp_x="0 : 526.18109 : 1"
       sodipodi:type="inkscape:persp3d" />
    <inkscape:perspective
       id="perspective2423"
       inkscape:persp3d-origin="372.04724 : 350.78739 : 1"
       inkscape:vp_z="744.09448 : 526.18109 : 1"
       inkscape:vp_y="0 : 1000 : 0"
       inkscape:vp_x="0 : 526.18109 : 1"
       sodipodi:type="inkscape:persp3d" />
    <inkscape:perspective
       id="perspective2478"
       inkscape:persp3d-origin="372.04724 : 350.78739 : 1"
       inkscape:vp_z="744.09448 : 526.18109 : 1"
       inkscape:vp_y="0 : 1000 : 0"
       inkscape:vp_x="0 : 526.18109 : 1"
       sodipodi:type="inkscape:persp3d" />
    <inkscape:perspective
       id="perspective2513"
       inkscape:persp3d-origin="372.04724 : 350.78739 : 1"
       inkscape:vp_z="744.09448 : 526.18109 : 1"
       inkscape:vp_y="0 : 1000 : 0"
       inkscape:vp_x="0 : 526.18109 : 1"
       sodipodi:type="inkscape:persp3d" />
    <inkscape:perspective
       id="perspective2614"
       inkscape:persp3d-origin="372.04724 : 350.78739 : 1"
       inkscape:vp_z="744.09448 : 526.18109 : 1"
       inkscape:vp_y="0 : 1000 : 0"
       inkscape:vp_x="0 : 526.18109 : 1"
       sodipodi:type="inkscape:persp3d" />
    <inkscape:perspective
       id="perspective2649"
       inkscape:persp3d-origin="372.04724 : 350.78739 : 1"
       inkscape:vp_z="744.09448 : 526.18109 : 1"
       inkscape:vp_y="0 : 1000 : 0"
       inkscape:vp_x="0 : 526.18109 : 1"
       sodipodi:type="inkscape:persp3d" />
    <inkscape:perspective
       id="perspective2684"
       inkscape:persp3d-origin="372.04724 : 350.78739 : 1"
       inkscape:vp_z="744.09448 : 526.18109 : 1"
       inkscape:vp_y="0 : 1000 : 0"
       inkscape:vp_x="0 : 526.18109 : 1"
       sodipodi:type="inkscape:persp3d" />
    <inkscape:perspective
       id="perspective2719"
       inkscape:persp3d-origin="372.04724 : 350.78739 : 1"
       inkscape:vp_z="744.09448 : 526.18109 : 1"
       inkscape:vp_y="0 : 1000 : 0"
       inkscape:vp_x="0 : 526.18109 : 1"
       sodipodi:type="inkscape:persp3d" />
    <inkscape:perspective
       id="perspective2754"
       inkscape:persp3d-origin="372.04724 : 350.78739 : 1"
       inkscape:vp_z="744.09448 : 526.18109 : 1"
       inkscape:vp_y="0 : 1000 : 0"
       inkscape:vp_x="0 : 526.18109 : 1"
       sodipodi:type="inkscape:persp3d" />
    <inkscape:perspective
       id="perspective2789"
       inkscape:persp3d-origin="372.04724 : 350.78739 : 1"
       inkscape:vp_z="744.09448 : 526.18109 : 1"
       inkscape:vp_y="0 : 1000 : 0"
       inkscape:vp_x="0 : 526.18109 : 1"
       sodipodi:type="inkscape:persp3d" />
    <inkscape:perspective
       id="perspective2824"
       inkscape:persp3d-origin="372.04724 : 350.78739 : 1"
       inkscape:vp_z="744.09448 : 526.18109 : 1"
       inkscape:vp_y="0 : 1000 : 0"
       inkscape:vp_x="0 : 526.18109 : 1"
       sodipodi:type="inkscape:persp3d" />
    <inkscape:perspective
       id="perspective2859"
       inkscape:persp3d-origin="372.04724 : 350.78739 : 1"
       inkscape:vp_z="744.09448 : 526.18109 : 1"
       inkscape:vp_y="0 : 1000 : 0"
       inkscape:vp_x="0 : 526.18109 : 1"
       sodipodi:type="inkscape:persp3d" />
    <inkscape:perspective
       id="perspective2894"
       inkscape:persp3d-origin="372.04724 : 350.78739 : 1"
       inkscape:vp_z="744.09448 : 526.18109 : 1"
       inkscape:vp_y="0 : 1000 : 0"
       inkscape:vp_x="0 : 526.18109 : 1"
       sodipodi:type="inkscape:persp3d" />
    <inkscape:perspective
       id="perspective2929"
       inkscape:persp3d-origin="372.04724 : 350.78739 : 1"
       inkscape:vp_z="744.09448 : 526.18109 : 1"
       inkscape:vp_y="0 : 1000 : 0"
       inkscape:vp_x="0 : 526.18109 : 1"
       sodipodi:type="inkscape:persp3d" />
  </defs>
  <sodipodi:namedview
     id="base"
     pagecolor="#ffffff"
     bordercolor="#666666"
     borderopacity="1.0"
     inkscape:pageopacity="0.0"
     inkscape:pageshadow="2"
     inkscape:zoom="6.32"
     inkscape:cx="25.095582"
     inkscape:cy="35.866562"
     inkscape:current-layer="layer1"
     showgrid="true"
     inkscape:document-units="px"
     inkscape:grid-bbox="true"
     inkscape:window-width="640"
     inkscape:window-height="688"
     inkscape:window-x="140"
     inkscape:window-y="140" />
  <metadata
     id="metadata2388">
    <rdf:RDF>
      <cc:Work
         rdf:about="">
        <dc:format>image/svg+xml</dc:format>
        <dc:type
           rdf:resource="http://purl.org/dc/dcmitype/StillImage" />
      </cc:Work>
    </rdf:RDF>
  </metadata>
  <g
     id="layer1"
     inkscape:label="Layer 1"
     inkscape:groupmode="layer">
    <path
       style="fill:#000000"
       d="M 17.068244,50.959437 C 12.940692,49.856504 9.494706,47.43484 3.6232212,41.510968 L 0.40304393,38.26206 L 1.1308533,37.534249 L 1.8586626,36.806438 L 5.7860992,40.694341 C 9.9157894,44.782462 11.638049,45.885218 14.957724,46.56688 C 18.598015,47.314385 22.1524,45.462938 23.974499,41.870129 C 25.631991,38.601888 25.295319,34.265777 23.239622,32.405396 C 22.807907,32.014699 22.432411,31.898332 22.299155,32.113942 C 22.177156,32.311344 21.164652,32.814333 20.049147,33.231697 L 18.020958,33.99054 L 15.751605,31.741359 L 13.482254,29.492177 L 15.038777,29.038315 C 17.005065,28.464973 19.841087,25.991972 20.699508,24.102182 C 21.899542,21.460337 21.401529,17.906015 19.724254,17.141799 C 17.371127,16.069642 13.3768,17.042758 10.792121,19.317883 L 9.140158,20.771998 L 8.1735233,19.918781 C 6.2638485,18.233173 4.8701866,16.763104 4.8701866,16.434344 C 4.8701866,15.702659 7.764567,13.546769 9.7562855,12.794915 C 12.430331,11.785492 15.750577,11.922848 18.137553,13.141643 C 20.298639,14.245097 23.904506,17.932704 24.982607,20.141862 C 26.174965,22.585149 26.21794,26.597013 25.076225,28.881532 L 24.294427,30.445871 L 25.793758,31.992241 L 27.293088,33.53861 L 31.687976,30.140465 L 36.082866,26.742319 L 36.082866,21.737949 L 36.082866,16.733581 L 34.188978,16.733581 C 32.334268,16.733581 32.247277,16.685341 29.983837,14.401599 L 27.672583,12.069617 L 37.000513,12.069617 L 46.32844,12.069617 L 48.639692,14.401599 L 50.950945,16.733581 L 45.848888,16.733581 L 40.74683,16.733581 L 40.742895,34.044063 L 40.738962,51.354543 L 38.410913,48.952915 L 36.082866,46.551282 L 36.082866,40.59631 L 36.082866,34.641342 L 33.661192,36.572058 C 32.329271,37.633951 30.876268,38.729053 30.432295,39.00562 C 29.767168,39.419952 29.62507,39.829163 29.62507,41.330267 C 29.62507,45.858288 27.067204,49.684486 23.215766,50.917659 C 20.918394,51.653245 19.695795,51.66155 17.068244,50.959437 z M 56.532553,42.460855 L 54.200571,40.232783 L 56.550685,37.998332 L 58.9008,35.76388 L 61.125313,38.008342 L 63.349826,40.252806 L 61.107181,42.470869 L 58.864535,44.688933 L 56.532553,42.460855 z M 56.532553,28.07667 L 54.200571,25.815068 L 56.160856,23.875382 C 57.23901,22.808553 58.300687,21.8223 58.520137,21.683708 C 58.749565,21.538814 59.860643,22.38167 61.134483,23.666936 L 63.349826,25.90215 L 61.107181,28.120211 L 58.864535,30.338273 L 56.532553,28.07667 z"
       id="path2935" />
  </g>
</svg>
