<?xml version="1.0" encoding="UTF-8" standalone="no"?>
<!-- Created with Inkscape (http://www.inkscape.org/) -->
<svg
   xmlns:dc="http://purl.org/dc/elements/1.1/"
   xmlns:cc="http://creativecommons.org/ns#"
   xmlns:rdf="http://www.w3.org/1999/02/22-rdf-syntax-ns#"
   xmlns:svg="http://www.w3.org/2000/svg"
   xmlns="http://www.w3.org/2000/svg"
   xmlns:sodipodi="http://sodipodi.sourceforge.net/DTD/sodipodi-0.dtd"
   xmlns:inkscape="http://www.inkscape.org/namespaces/inkscape"
   width="64px"
   height="64px"
   id="svg2383"
   sodipodi:version="0.32"
   inkscape:version="0.46"
   sodipodi:docname="devaanagarii_ai.svg"
   inkscape:output_extension="org.inkscape.output.svg.inkscape">
  <defs
     id="defs2385">
    <inkscape:perspective
       sodipodi:type="inkscape:persp3d"
       inkscape:vp_x="0 : 32 : 1"
       inkscape:vp_y="0 : 1000 : 0"
       inkscape:vp_z="64 : 32 : 1"
       inkscape:persp3d-origin="32 : 21.333333 : 1"
       id="perspective2391" />
    <inkscape:perspective
       id="perspective2426"
       inkscape:persp3d-origin="372.04724 : 350.78739 : 1"
       inkscape:vp_z="744.09448 : 526.18109 : 1"
       inkscape:vp_y="0 : 1000 : 0"
       inkscape:vp_x="0 : 526.18109 : 1"
       sodipodi:type="inkscape:persp3d" />
    <inkscape:perspective
       id="perspective2388"
       inkscape:persp3d-origin="372.04724 : 350.78739 : 1"
       inkscape:vp_z="744.09448 : 526.18109 : 1"
       inkscape:vp_y="0 : 1000 : 0"
       inkscape:vp_x="0 : 526.18109 : 1"
       sodipodi:type="inkscape:persp3d" />
    <inkscape:perspective
       id="perspective2423"
       inkscape:persp3d-origin="372.04724 : 350.78739 : 1"
       inkscape:vp_z="744.09448 : 526.18109 : 1"
       inkscape:vp_y="0 : 1000 : 0"
       inkscape:vp_x="0 : 526.18109 : 1"
       sodipodi:type="inkscape:persp3d" />
    <inkscape:perspective
       id="perspective2478"
       inkscape:persp3d-origin="372.04724 : 350.78739 : 1"
       inkscape:vp_z="744.09448 : 526.18109 : 1"
       inkscape:vp_y="0 : 1000 : 0"
       inkscape:vp_x="0 : 526.18109 : 1"
       sodipodi:type="inkscape:persp3d" />
    <inkscape:perspective
       id="perspective2513"
       inkscape:persp3d-origin="372.04724 : 350.78739 : 1"
       inkscape:vp_z="744.09448 : 526.18109 : 1"
       inkscape:vp_y="0 : 1000 : 0"
       inkscape:vp_x="0 : 526.18109 : 1"
       sodipodi:type="inkscape:persp3d" />
    <inkscape:perspective
       id="perspective2614"
       inkscape:persp3d-origin="372.04724 : 350.78739 : 1"
       inkscape:vp_z="744.09448 : 526.18109 : 1"
       inkscape:vp_y="0 : 1000 : 0"
       inkscape:vp_x="0 : 526.18109 : 1"
       sodipodi:type="inkscape:persp3d" />
    <inkscape:perspective
       id="perspective2649"
       inkscape:persp3d-origin="372.04724 : 350.78739 : 1"
       inkscape:vp_z="744.09448 : 526.18109 : 1"
       inkscape:vp_y="0 : 1000 : 0"
       inkscape:vp_x="0 : 526.18109 : 1"
       sodipodi:type="inkscape:persp3d" />
    <inkscape:perspective
       id="perspective2684"
       inkscape:persp3d-origin="372.04724 : 350.78739 : 1"
       inkscape:vp_z="744.09448 : 526.18109 : 1"
       inkscape:vp_y="0 : 1000 : 0"
       inkscape:vp_x="0 : 526.18109 : 1"
       sodipodi:type="inkscape:persp3d" />
    <inkscape:perspective
       id="perspective2719"
       inkscape:persp3d-origin="372.04724 : 350.78739 : 1"
       inkscape:vp_z="744.09448 : 526.18109 : 1"
       inkscape:vp_y="0 : 1000 : 0"
       inkscape:vp_x="0 : 526.18109 : 1"
       sodipodi:type="inkscape:persp3d" />
    <inkscape:perspective
       id="perspective2754"
       inkscape:persp3d-origin="372.04724 : 350.78739 : 1"
       inkscape:vp_z="744.09448 : 526.18109 : 1"
       inkscape:vp_y="0 : 1000 : 0"
       inkscape:vp_x="0 : 526.18109 : 1"
       sodipodi:type="inkscape:persp3d" />
    <inkscape:perspective
       id="perspective2789"
       inkscape:persp3d-origin="372.04724 : 350.78739 : 1"
       inkscape:vp_z="744.09448 : 526.18109 : 1"
       inkscape:vp_y="0 : 1000 : 0"
       inkscape:vp_x="0 : 526.18109 : 1"
       sodipodi:type="inkscape:persp3d" />
  </defs>
  <sodipodi:namedview
     id="base"
     pagecolor="#ffffff"
     bordercolor="#666666"
     borderopacity="1.0"
     inkscape:pageopacity="0.0"
     inkscape:pageshadow="2"
     inkscape:zoom="6.32"
     inkscape:cx="36.525547"
     inkscape:cy="29.537448"
     inkscape:current-layer="layer1"
     showgrid="true"
     inkscape:document-units="px"
     inkscape:grid-bbox="true"
     inkscape:window-width="640"
     inkscape:window-height="688"
     inkscape:window-x="140"
     inkscape:window-y="140" />
  <metadata
     id="metadata2388">
    <rdf:RDF>
      <cc:Work
         rdf:about="">
        <dc:format>image/svg+xml</dc:format>
        <dc:type
           rdf:resource="http://purl.org/dc/dcmitype/StillImage" />
      </cc:Work>
    </rdf:RDF>
  </metadata>
  <g
     id="layer1"
     inkscape:label="Layer 1"
     inkscape:groupmode="layer">
    <path
       style="fill:#000000"
       d="M 34.841474,61.291692 L 32.661153,59.091814 L 34.213021,58.70105 C 35.997088,58.251817 37.33897,56.879796 37.93282,54.897705 C 38.494753,53.022141 37.744415,51.425458 35.696635,50.139215 C 26.404187,44.302469 23.264143,41.409493 21.060938,36.655099 C 20.155115,34.700385 20.103799,34.304802 19.97566,28.289159 C 19.879563,23.777718 19.725662,21.97495 19.436621,21.97495 C 19.004969,21.97495 14.72727,17.802394 14.72727,17.381351 C 14.72727,17.243754 19.70235,17.131174 25.783002,17.131174 L 36.838734,17.131174 L 35.1927,14.276804 C 34.287381,12.706902 33.438339,11.137703 33.305942,10.789696 C 32.657436,9.0851197 30.433648,6.2830788 29.379937,5.8428103 C 27.101225,4.8907029 24.380536,5.4119334 22.456513,7.1692026 L 21.709145,7.8517958 L 19.573995,5.7166468 C 17.514527,3.6571788 17.460221,3.5578762 18.04192,2.9151073 C 18.720312,2.1654926 20.573372,1.5118904 21.181132,1.2159058 C 22.584788,0.5323125 24.493894,0.79252368 25.637271,1.2159058 C 26.780647,1.6392878 29.634466,2.9591181 31.20163,4.4036806 C 33.300738,6.3385696 34.913067,8.5936505 37.565395,13.304346 L 39.817469,17.304165 L 43.091613,17.404663 L 46.365754,17.50516 L 48.589695,19.740056 L 50.813631,21.97495 L 46.090841,21.97495 L 41.368043,21.97495 L 41.362036,27.943175 C 41.353215,36.705335 40.310371,40.703467 37.503354,42.73686 C 34.736297,44.741306 32.156029,44.329006 28.800869,41.346296 L 27.132191,39.862854 L 27.837201,39.157845 C 28.510686,38.48436 28.572144,38.479924 29.21166,39.058679 C 29.717146,39.516136 30.186941,39.607147 31.129793,39.430266 C 34.888692,38.725093 36.852272,34.140109 36.864243,26.040262 L 36.870249,21.97495 L 30.614219,21.97495 L 24.358188,21.97495 L 24.474869,29.846087 C 24.583591,37.180388 24.643694,37.814964 25.356127,39.15031 C 26.373681,41.057568 28.995555,43.298766 32.846939,45.553521 C 36.586627,47.742883 40.528525,51.476995 41.740697,53.978474 C 43.770218,58.166654 42.133048,61.958665 37.724487,63.280827 C 37.181358,63.443713 36.526708,62.992037 34.841474,61.291692 z"
       id="path2795"
       sodipodi:nodetypes="cccsssssscccsscccsszscccccccccscccsscccccssssc" />
  </g>
</svg>
