<?xml version="1.0" encoding="UTF-8" standalone="no"?>
<!-- Created with Inkscape (http://www.inkscape.org/) -->
<svg
   xmlns:dc="http://purl.org/dc/elements/1.1/"
   xmlns:cc="http://creativecommons.org/ns#"
   xmlns:rdf="http://www.w3.org/1999/02/22-rdf-syntax-ns#"
   xmlns:svg="http://www.w3.org/2000/svg"
   xmlns="http://www.w3.org/2000/svg"
   xmlns:sodipodi="http://sodipodi.sourceforge.net/DTD/sodipodi-0.dtd"
   xmlns:inkscape="http://www.inkscape.org/namespaces/inkscape"
   width="64px"
   height="64px"
   id="svg2383"
   sodipodi:version="0.32"
   inkscape:version="0.46"
   sodipodi:docname="devaanagarii_au.svg"
   inkscape:output_extension="org.inkscape.output.svg.inkscape">
  <defs
     id="defs2385">
    <inkscape:perspective
       sodipodi:type="inkscape:persp3d"
       inkscape:vp_x="0 : 32 : 1"
       inkscape:vp_y="0 : 1000 : 0"
       inkscape:vp_z="64 : 32 : 1"
       inkscape:persp3d-origin="32 : 21.333333 : 1"
       id="perspective2391" />
    <inkscape:perspective
       id="perspective2426"
       inkscape:persp3d-origin="372.04724 : 350.78739 : 1"
       inkscape:vp_z="744.09448 : 526.18109 : 1"
       inkscape:vp_y="0 : 1000 : 0"
       inkscape:vp_x="0 : 526.18109 : 1"
       sodipodi:type="inkscape:persp3d" />
    <inkscape:perspective
       id="perspective2388"
       inkscape:persp3d-origin="372.04724 : 350.78739 : 1"
       inkscape:vp_z="744.09448 : 526.18109 : 1"
       inkscape:vp_y="0 : 1000 : 0"
       inkscape:vp_x="0 : 526.18109 : 1"
       sodipodi:type="inkscape:persp3d" />
    <inkscape:perspective
       id="perspective2423"
       inkscape:persp3d-origin="372.04724 : 350.78739 : 1"
       inkscape:vp_z="744.09448 : 526.18109 : 1"
       inkscape:vp_y="0 : 1000 : 0"
       inkscape:vp_x="0 : 526.18109 : 1"
       sodipodi:type="inkscape:persp3d" />
    <inkscape:perspective
       id="perspective2478"
       inkscape:persp3d-origin="372.04724 : 350.78739 : 1"
       inkscape:vp_z="744.09448 : 526.18109 : 1"
       inkscape:vp_y="0 : 1000 : 0"
       inkscape:vp_x="0 : 526.18109 : 1"
       sodipodi:type="inkscape:persp3d" />
    <inkscape:perspective
       id="perspective2513"
       inkscape:persp3d-origin="372.04724 : 350.78739 : 1"
       inkscape:vp_z="744.09448 : 526.18109 : 1"
       inkscape:vp_y="0 : 1000 : 0"
       inkscape:vp_x="0 : 526.18109 : 1"
       sodipodi:type="inkscape:persp3d" />
    <inkscape:perspective
       id="perspective2614"
       inkscape:persp3d-origin="372.04724 : 350.78739 : 1"
       inkscape:vp_z="744.09448 : 526.18109 : 1"
       inkscape:vp_y="0 : 1000 : 0"
       inkscape:vp_x="0 : 526.18109 : 1"
       sodipodi:type="inkscape:persp3d" />
    <inkscape:perspective
       id="perspective2649"
       inkscape:persp3d-origin="372.04724 : 350.78739 : 1"
       inkscape:vp_z="744.09448 : 526.18109 : 1"
       inkscape:vp_y="0 : 1000 : 0"
       inkscape:vp_x="0 : 526.18109 : 1"
       sodipodi:type="inkscape:persp3d" />
    <inkscape:perspective
       id="perspective2684"
       inkscape:persp3d-origin="372.04724 : 350.78739 : 1"
       inkscape:vp_z="744.09448 : 526.18109 : 1"
       inkscape:vp_y="0 : 1000 : 0"
       inkscape:vp_x="0 : 526.18109 : 1"
       sodipodi:type="inkscape:persp3d" />
    <inkscape:perspective
       id="perspective2719"
       inkscape:persp3d-origin="372.04724 : 350.78739 : 1"
       inkscape:vp_z="744.09448 : 526.18109 : 1"
       inkscape:vp_y="0 : 1000 : 0"
       inkscape:vp_x="0 : 526.18109 : 1"
       sodipodi:type="inkscape:persp3d" />
    <inkscape:perspective
       id="perspective2754"
       inkscape:persp3d-origin="372.04724 : 350.78739 : 1"
       inkscape:vp_z="744.09448 : 526.18109 : 1"
       inkscape:vp_y="0 : 1000 : 0"
       inkscape:vp_x="0 : 526.18109 : 1"
       sodipodi:type="inkscape:persp3d" />
    <inkscape:perspective
       id="perspective2789"
       inkscape:persp3d-origin="372.04724 : 350.78739 : 1"
       inkscape:vp_z="744.09448 : 526.18109 : 1"
       inkscape:vp_y="0 : 1000 : 0"
       inkscape:vp_x="0 : 526.18109 : 1"
       sodipodi:type="inkscape:persp3d" />
    <inkscape:perspective
       id="perspective2824"
       inkscape:persp3d-origin="372.04724 : 350.78739 : 1"
       inkscape:vp_z="744.09448 : 526.18109 : 1"
       inkscape:vp_y="0 : 1000 : 0"
       inkscape:vp_x="0 : 526.18109 : 1"
       sodipodi:type="inkscape:persp3d" />
    <inkscape:perspective
       id="perspective2859"
       inkscape:persp3d-origin="372.04724 : 350.78739 : 1"
       inkscape:vp_z="744.09448 : 526.18109 : 1"
       inkscape:vp_y="0 : 1000 : 0"
       inkscape:vp_x="0 : 526.18109 : 1"
       sodipodi:type="inkscape:persp3d" />
  </defs>
  <sodipodi:namedview
     id="base"
     pagecolor="#ffffff"
     bordercolor="#666666"
     borderopacity="1.0"
     inkscape:pageopacity="0.0"
     inkscape:pageshadow="2"
     inkscape:zoom="6.32"
     inkscape:cx="39.93419"
     inkscape:cy="35.866562"
     inkscape:current-layer="layer1"
     showgrid="true"
     inkscape:document-units="px"
     inkscape:grid-bbox="true"
     inkscape:window-width="640"
     inkscape:window-height="688"
     inkscape:window-x="140"
     inkscape:window-y="140" />
  <metadata
     id="metadata2388">
    <rdf:RDF>
      <cc:Work
         rdf:about="">
        <dc:format>image/svg+xml</dc:format>
        <dc:type
           rdf:resource="http://purl.org/dc/dcmitype/StillImage" />
      </cc:Work>
    </rdf:RDF>
  </metadata>
  <g
     id="layer1"
     inkscape:label="Layer 1"
     inkscape:groupmode="layer">
    <path
       style="fill:#000000"
       d="M 16.082571,54.886057 C 12.282226,53.870556 9.1094167,51.640868 3.7033856,46.186603 L 0.73848517,43.195246 L 1.4085968,42.525134 L 2.078714,41.855019 L 5.6948035,45.434711 C 9.4971186,49.198753 11.082848,50.21409 14.139358,50.841714 C 17.49107,51.529961 20.763686,49.825286 22.441339,46.517291 C 23.967436,43.508137 23.657453,39.515765 21.764719,37.802864 C 21.367228,37.443139 21.021499,37.335995 20.898808,37.534514 C 20.786479,37.716266 19.854241,38.179382 18.827165,38.56366 L 16.959759,39.262346 L 14.870307,37.191465 L 12.780853,35.120587 L 14.213987,34.702705 C 16.024398,34.174811 18.6356,31.897857 19.425971,30.157876 C 20.530874,27.725463 20.07234,24.452905 18.528029,23.749269 C 16.361443,22.762106 12.683761,23.658081 10.303978,25.752847 L 8.7829741,27.091687 L 7.8929681,26.306111 C 6.1346815,24.754126 4.8514987,23.400594 4.8514987,23.097897 C 4.8514987,22.424216 7.5164313,20.439231 9.3502593,19.74698 C 11.812322,18.817578 14.869359,18.944045 17.067111,20.066222 C 19.056879,21.0822 22.376896,24.477476 23.369532,26.511506 C 24.467368,28.761104 24.506935,32.454934 23.455729,34.558349 L 22.735906,35.998678 L 24.116379,37.422461 L 25.496853,38.846243 L 29.543342,35.717482 L 33.589831,32.588719 L 33.589831,27.981066 L 33.589831,23.373413 L 31.846078,23.373413 C 30.1384,23.373413 30.058307,23.328996 27.974295,21.226295 L 25.846264,19.079179 L 37.645864,19.079179 C 46.029524,19.079179 49.445463,18.973658 49.445463,18.714682 C 49.445463,18.514207 48.442098,17.349933 47.215764,16.127405 C 43.600955,12.523813 40.104964,11.797697 36.865543,13.977668 L 35.119979,15.152345 L 33.134227,13.166594 L 31.148477,11.180844 L 31.791087,10.462645 C 32.732927,9.4100103 35.071263,8.5087571 36.860518,8.5087571 C 39.409919,8.5087571 42.998039,9.809509 44.903486,11.424464 C 45.670044,12.074156 45.632462,11.810081 44.738323,10.263863 C 43.11664,7.459514 41.753498,5.9000823 40.477554,5.3895512 C 37.979123,4.3898765 35.262805,4.8659102 33.319823,6.643938 L 32.554326,7.3444469 L 30.552828,5.273625 C 28.580172,3.232646 28.560142,3.1930605 29.163021,2.5268869 C 30.3255,1.2423589 32.528069,0.49947085 34.753837,0.64119501 C 40.143721,0.98439917 45.484354,5.8909869 49.775907,14.442399 C 50.365179,15.616592 51.20267,17.14022 51.636998,17.828238 L 52.426682,19.079179 L 55.616766,19.079179 L 58.806853,19.079179 L 61.030881,21.226295 L 63.254912,23.373413 L 58.497301,23.373413 L 53.739697,23.373413 L 53.739697,39.13692 L 53.739697,54.900429 L 51.59258,52.772398 L 49.445463,50.644368 L 49.445463,37.008888 L 49.445463,23.373413 L 43.664765,23.373413 L 37.884065,23.373413 L 37.880442,39.311627 L 37.876821,55.249841 L 35.733325,53.038599 L 33.589831,50.827352 L 33.589831,45.344455 L 33.589831,39.861557 L 31.360133,41.639216 C 30.133799,42.616932 28.795981,43.625221 28.387203,43.879862 C 27.774803,44.261349 27.64397,44.638122 27.64397,46.020228 C 27.64397,50.189294 25.288876,53.712176 21.742755,54.847591 C 19.627505,55.524863 18.501826,55.532511 16.082571,54.886057 z"
       id="path2865" />
  </g>
</svg>
