<?xml version="1.0" encoding="UTF-8" standalone="no"?>
<!-- Created with Inkscape (http://www.inkscape.org/) -->
<svg
   xmlns:dc="http://purl.org/dc/elements/1.1/"
   xmlns:cc="http://creativecommons.org/ns#"
   xmlns:rdf="http://www.w3.org/1999/02/22-rdf-syntax-ns#"
   xmlns:svg="http://www.w3.org/2000/svg"
   xmlns="http://www.w3.org/2000/svg"
   xmlns:sodipodi="http://sodipodi.sourceforge.net/DTD/sodipodi-0.dtd"
   xmlns:inkscape="http://www.inkscape.org/namespaces/inkscape"
   width="64px"
   height="64px"
   id="svg2383"
   sodipodi:version="0.32"
   inkscape:version="0.46"
   sodipodi:docname="devaanagarii_lii.svg"
   inkscape:output_extension="org.inkscape.output.svg.inkscape">
  <defs
     id="defs2385">
    <inkscape:perspective
       sodipodi:type="inkscape:persp3d"
       inkscape:vp_x="0 : 32 : 1"
       inkscape:vp_y="0 : 1000 : 0"
       inkscape:vp_z="64 : 32 : 1"
       inkscape:persp3d-origin="32 : 21.333333 : 1"
       id="perspective2391" />
    <inkscape:perspective
       id="perspective2426"
       inkscape:persp3d-origin="372.04724 : 350.78739 : 1"
       inkscape:vp_z="744.09448 : 526.18109 : 1"
       inkscape:vp_y="0 : 1000 : 0"
       inkscape:vp_x="0 : 526.18109 : 1"
       sodipodi:type="inkscape:persp3d" />
    <inkscape:perspective
       id="perspective2388"
       inkscape:persp3d-origin="372.04724 : 350.78739 : 1"
       inkscape:vp_z="744.09448 : 526.18109 : 1"
       inkscape:vp_y="0 : 1000 : 0"
       inkscape:vp_x="0 : 526.18109 : 1"
       sodipodi:type="inkscape:persp3d" />
    <inkscape:perspective
       id="perspective2423"
       inkscape:persp3d-origin="372.04724 : 350.78739 : 1"
       inkscape:vp_z="744.09448 : 526.18109 : 1"
       inkscape:vp_y="0 : 1000 : 0"
       inkscape:vp_x="0 : 526.18109 : 1"
       sodipodi:type="inkscape:persp3d" />
    <inkscape:perspective
       id="perspective2478"
       inkscape:persp3d-origin="372.04724 : 350.78739 : 1"
       inkscape:vp_z="744.09448 : 526.18109 : 1"
       inkscape:vp_y="0 : 1000 : 0"
       inkscape:vp_x="0 : 526.18109 : 1"
       sodipodi:type="inkscape:persp3d" />
    <inkscape:perspective
       id="perspective2513"
       inkscape:persp3d-origin="372.04724 : 350.78739 : 1"
       inkscape:vp_z="744.09448 : 526.18109 : 1"
       inkscape:vp_y="0 : 1000 : 0"
       inkscape:vp_x="0 : 526.18109 : 1"
       sodipodi:type="inkscape:persp3d" />
    <inkscape:perspective
       id="perspective2614"
       inkscape:persp3d-origin="372.04724 : 350.78739 : 1"
       inkscape:vp_z="744.09448 : 526.18109 : 1"
       inkscape:vp_y="0 : 1000 : 0"
       inkscape:vp_x="0 : 526.18109 : 1"
       sodipodi:type="inkscape:persp3d" />
    <inkscape:perspective
       id="perspective2649"
       inkscape:persp3d-origin="372.04724 : 350.78739 : 1"
       inkscape:vp_z="744.09448 : 526.18109 : 1"
       inkscape:vp_y="0 : 1000 : 0"
       inkscape:vp_x="0 : 526.18109 : 1"
       sodipodi:type="inkscape:persp3d" />
    <inkscape:perspective
       id="perspective2684"
       inkscape:persp3d-origin="372.04724 : 350.78739 : 1"
       inkscape:vp_z="744.09448 : 526.18109 : 1"
       inkscape:vp_y="0 : 1000 : 0"
       inkscape:vp_x="0 : 526.18109 : 1"
       sodipodi:type="inkscape:persp3d" />
    <inkscape:perspective
       id="perspective2719"
       inkscape:persp3d-origin="372.04724 : 350.78739 : 1"
       inkscape:vp_z="744.09448 : 526.18109 : 1"
       inkscape:vp_y="0 : 1000 : 0"
       inkscape:vp_x="0 : 526.18109 : 1"
       sodipodi:type="inkscape:persp3d" />
  </defs>
  <sodipodi:namedview
     id="base"
     pagecolor="#ffffff"
     bordercolor="#666666"
     borderopacity="1.0"
     inkscape:pageopacity="0.0"
     inkscape:pageshadow="2"
     inkscape:zoom="5.5"
     inkscape:cx="43.225973"
     inkscape:cy="29.230444"
     inkscape:current-layer="layer1"
     showgrid="true"
     inkscape:document-units="px"
     inkscape:grid-bbox="true"
     inkscape:window-width="640"
     inkscape:window-height="688"
     inkscape:window-x="140"
     inkscape:window-y="140" />
  <metadata
     id="metadata2388">
    <rdf:RDF>
      <cc:Work
         rdf:about="">
        <dc:format>image/svg+xml</dc:format>
        <dc:type
           rdf:resource="http://purl.org/dc/dcmitype/StillImage" />
      </cc:Work>
    </rdf:RDF>
  </metadata>
  <g
     id="layer1"
     inkscape:label="Layer 1"
     inkscape:groupmode="layer">
    <path
       style="fill:#000000"
       d="M 46.992951,62.148656 C 44.537569,61.000172 41.357639,57.891471 39.976673,55.289541 C 39.410912,54.223568 39.167715,52.821215 39.210431,50.871134 C 39.261598,48.535132 39.100352,47.858192 38.325918,47.157831 C 36.709118,45.695667 35.620963,43.012216 35.620963,40.487268 C 35.620963,37.448092 35.979897,36.805678 40.023003,32.608522 C 43.950323,28.531563 45.01077,26.701983 44.814533,24.341719 C 44.677885,22.698148 44.595915,22.623427 42.783611,22.490406 C 39.794435,22.271002 35.478675,24.747169 32.643947,28.308037 L 30.362401,31.174019 L 28.92788,29.920956 C 28.138893,29.231772 26.890941,27.978238 26.154652,27.135328 C 24.917215,25.718694 24.863598,25.50784 25.445891,24.347974 C 25.792362,23.65784 26.152164,22.93653 26.245453,22.745063 C 26.63736,21.940702 22.224809,22.484008 20.017188,23.511933 C 14.64127,26.015099 12.579681,31.836996 14.679792,38.584665 C 15.768693,42.08331 17.312616,44.744575 20.251415,48.188481 C 22.188477,50.458474 22.454949,50.994809 22.00426,51.716476 C 21.179022,53.037891 20.613552,52.771523 18.042295,49.85017 C 6.890406,37.179852 4.5783006,24.728337 12.28708,18.856276 C 14.550629,17.132048 18.436119,16.149608 21.085826,16.631526 C 23.168831,17.010375 26.837701,18.768658 27.691267,19.79714 C 28.223804,20.438807 28.517327,20.362679 30.336488,19.111061 C 32.338165,17.733873 33.625613,17.187994 36.201166,16.624438 L 37.477614,16.345138 L 37.477614,11.944435 L 37.477614,7.5437309 L 25.744094,7.5437309 L 14.010575,7.5437309 L 11.122966,4.6302244 C 9.534782,3.0277962 8.2353577,1.5656837 8.2353577,1.3810845 C 8.2353577,1.1964871 18.456557,1.0454512 30.949133,1.0454512 L 53.662911,1.0454512 L 56.594126,4.0026892 C 58.206298,5.6291698 59.838657,7.0747929 60.221591,7.215184 C 60.604526,7.355576 57.001461,7.4869318 52.214783,7.5070858 L 43.51173,7.5437309 L 43.533224,12.765562 L 43.554716,17.987394 L 45.364375,19.379883 C 48.784483,22.011573 50.938336,25.872645 50.938336,29.37196 C 50.938336,32.182236 49.694843,34.377595 45.798679,38.445922 C 42.360601,42.035915 41.190916,43.802031 41.190916,45.403217 C 41.190916,46.622823 43.783161,46.136167 46.296708,44.444674 C 47.624463,43.55116 48.77511,42.820104 48.853703,42.820104 C 48.932295,42.820104 50.250322,44.085551 51.782651,45.632207 L 54.568705,48.444309 L 52.681987,49.811045 C 51.644289,50.562748 49.939742,51.406456 48.894107,51.685952 C 47.848471,51.965448 46.742545,52.399288 46.43649,52.650038 C 45.536385,53.387494 44.730877,56.293149 45.275549,56.83782 C 45.931959,57.494231 48.912785,56.47103 50.876773,54.915137 L 52.439777,53.67691 L 55.387869,56.457296 C 58.779016,59.65553 58.768729,59.720169 54.531764,61.837407 C 51.156093,63.524247 50.033004,63.570618 46.992951,62.148656 z"
       id="path2725" />
  </g>
</svg>
