<?xml version="1.0" encoding="UTF-8" standalone="no"?>
<!-- Created with Inkscape (http://www.inkscape.org/) -->
<svg
   xmlns:dc="http://purl.org/dc/elements/1.1/"
   xmlns:cc="http://creativecommons.org/ns#"
   xmlns:rdf="http://www.w3.org/1999/02/22-rdf-syntax-ns#"
   xmlns:svg="http://www.w3.org/2000/svg"
   xmlns="http://www.w3.org/2000/svg"
   xmlns:sodipodi="http://sodipodi.sourceforge.net/DTD/sodipodi-0.dtd"
   xmlns:inkscape="http://www.inkscape.org/namespaces/inkscape"
   width="64px"
   height="64px"
   id="svg2383"
   sodipodi:version="0.32"
   inkscape:version="0.46"
   sodipodi:docname="devanagari_ng.svg"
   inkscape:output_extension="org.inkscape.output.svg.inkscape">
  <defs
     id="defs2385">
    <inkscape:perspective
       sodipodi:type="inkscape:persp3d"
       inkscape:vp_x="0 : 32 : 1"
       inkscape:vp_y="0 : 1000 : 0"
       inkscape:vp_z="64 : 32 : 1"
       inkscape:persp3d-origin="32 : 21.333333 : 1"
       id="perspective2391" />
    <inkscape:perspective
       id="perspective2400"
       inkscape:persp3d-origin="372.04724 : 350.78739 : 1"
       inkscape:vp_z="744.09448 : 526.18109 : 1"
       inkscape:vp_y="0 : 1000 : 0"
       inkscape:vp_x="0 : 526.18109 : 1"
       sodipodi:type="inkscape:persp3d" />
    <inkscape:perspective
       id="perspective2415"
       inkscape:persp3d-origin="372.04724 : 350.78739 : 1"
       inkscape:vp_z="744.09448 : 526.18109 : 1"
       inkscape:vp_y="0 : 1000 : 0"
       inkscape:vp_x="0 : 526.18109 : 1"
       sodipodi:type="inkscape:persp3d" />
    <inkscape:perspective
       id="perspective2450"
       inkscape:persp3d-origin="372.04724 : 350.78739 : 1"
       inkscape:vp_z="744.09448 : 526.18109 : 1"
       inkscape:vp_y="0 : 1000 : 0"
       inkscape:vp_x="0 : 526.18109 : 1"
       sodipodi:type="inkscape:persp3d" />
    <inkscape:perspective
       id="perspective2485"
       inkscape:persp3d-origin="372.04724 : 350.78739 : 1"
       inkscape:vp_z="744.09448 : 526.18109 : 1"
       inkscape:vp_y="0 : 1000 : 0"
       inkscape:vp_x="0 : 526.18109 : 1"
       sodipodi:type="inkscape:persp3d" />
    <inkscape:perspective
       id="perspective2520"
       inkscape:persp3d-origin="372.04724 : 350.78739 : 1"
       inkscape:vp_z="744.09448 : 526.18109 : 1"
       inkscape:vp_y="0 : 1000 : 0"
       inkscape:vp_x="0 : 526.18109 : 1"
       sodipodi:type="inkscape:persp3d" />
    <inkscape:perspective
       id="perspective2655"
       inkscape:persp3d-origin="372.04724 : 350.78739 : 1"
       inkscape:vp_z="744.09448 : 526.18109 : 1"
       inkscape:vp_y="0 : 1000 : 0"
       inkscape:vp_x="0 : 526.18109 : 1"
       sodipodi:type="inkscape:persp3d" />
  </defs>
  <sodipodi:namedview
     id="base"
     pagecolor="#ffffff"
     bordercolor="#666666"
     borderopacity="1.0"
     inkscape:pageopacity="0.0"
     inkscape:pageshadow="2"
     inkscape:zoom="5.5"
     inkscape:cx="30.76576"
     inkscape:cy="30.017422"
     inkscape:current-layer="layer1"
     showgrid="true"
     inkscape:document-units="px"
     inkscape:grid-bbox="true"
     inkscape:window-width="640"
     inkscape:window-height="688"
     inkscape:window-x="112"
     inkscape:window-y="112" />
  <metadata
     id="metadata2388">
    <rdf:RDF>
      <cc:Work
         rdf:about="">
        <dc:format>image/svg+xml</dc:format>
        <dc:type
           rdf:resource="http://purl.org/dc/dcmitype/StillImage" />
      </cc:Work>
    </rdf:RDF>
  </metadata>
  <g
     id="layer1"
     inkscape:label="Layer 1"
     inkscape:groupmode="layer">
    <path
       style="fill:#000000"
       d="M 24.137262,62.507368 C 18.754072,61.205684 13.578272,57.875903 5.751158,50.678919 L 1.9145214,47.151155 L 3.245857,45.991958 L 4.5771936,44.832754 L 7.583555,47.762844 C 14.306688,54.315404 18.446591,56.140451 25.491802,55.657563 C 35.192449,54.992661 42.293282,47.541691 41.149787,39.22749 C 40.567084,34.990729 38.630883,34.843208 28.765145,38.283893 C 19.550431,41.497533 14.806149,40.763329 9.3169991,35.274179 C 3.2464221,29.203602 2.6445972,21.080548 7.9647696,17.022655 C 10.397396,15.1672 13.165913,14.736261 22.740625,14.722692 L 31.383914,14.710444 L 31.383914,11.704083 L 31.383914,8.6977217 L 19.219765,8.6977217 L 7.0556182,8.6977217 L 3.6869001,5.3029907 C 1.8341057,3.4358885 0.31818218,1.7448109 0.31818218,1.5450388 C 0.31818218,1.3452676 12.894173,1.1818187 28.264828,1.1818187 L 56.211476,1.1818187 L 59.944345,4.9397707 L 63.677212,8.6977217 L 51.288515,8.6977217 L 38.899817,8.6977217 L 38.899817,15.462034 L 38.899817,22.226347 L 28.495,22.226347 C 19.326407,22.226347 17.88275,22.336688 16.34429,23.155043 C 12.742241,25.071087 10.249457,30.582861 12.133058,32.466463 C 13.356574,33.689978 16.006228,33.276145 23.53984,30.684904 C 28.618915,28.937918 29.966813,28.662556 32.576141,28.838877 C 34.262873,28.952856 36.509138,29.463721 37.567843,29.974131 C 40.610712,31.441128 44.592692,35.421686 46.457116,38.860228 C 48.064844,41.825336 48.169345,42.308965 48.168047,46.778296 C 48.166874,50.803563 47.984504,51.886435 46.986648,53.793139 C 44.496734,58.550861 40.595179,61.290357 34.455949,62.591631 C 30.362229,63.459336 27.994219,63.440001 24.137262,62.507368 z M 49.668071,31.240852 L 46.182982,27.728854 L 49.806774,24.105065 L 53.430562,20.481275 L 57.05435,24.105065 L 60.678142,27.728854 L 57.193053,31.240852 C 55.276258,33.172452 53.583135,34.752852 53.430562,34.752852 C 53.277989,34.752852 51.584867,33.172452 49.668071,31.240852 z"
       id="path2661" />
  </g>
</svg>
