<?xml version="1.0" encoding="UTF-8" standalone="no"?>
<!-- Created with Inkscape (http://www.inkscape.org/) -->
<svg
   xmlns:dc="http://purl.org/dc/elements/1.1/"
   xmlns:cc="http://creativecommons.org/ns#"
   xmlns:rdf="http://www.w3.org/1999/02/22-rdf-syntax-ns#"
   xmlns:svg="http://www.w3.org/2000/svg"
   xmlns="http://www.w3.org/2000/svg"
   xmlns:sodipodi="http://sodipodi.sourceforge.net/DTD/sodipodi-0.dtd"
   xmlns:inkscape="http://www.inkscape.org/namespaces/inkscape"
   width="64px"
   height="64px"
   id="svg2383"
   sodipodi:version="0.32"
   inkscape:version="0.46"
   sodipodi:docname="devaanagarii_ri.svg"
   inkscape:output_extension="org.inkscape.output.svg.inkscape">
  <defs
     id="defs2385">
    <inkscape:perspective
       sodipodi:type="inkscape:persp3d"
       inkscape:vp_x="0 : 32 : 1"
       inkscape:vp_y="0 : 1000 : 0"
       inkscape:vp_z="64 : 32 : 1"
       inkscape:persp3d-origin="32 : 21.333333 : 1"
       id="perspective2391" />
    <inkscape:perspective
       id="perspective2426"
       inkscape:persp3d-origin="372.04724 : 350.78739 : 1"
       inkscape:vp_z="744.09448 : 526.18109 : 1"
       inkscape:vp_y="0 : 1000 : 0"
       inkscape:vp_x="0 : 526.18109 : 1"
       sodipodi:type="inkscape:persp3d" />
    <inkscape:perspective
       id="perspective2388"
       inkscape:persp3d-origin="372.04724 : 350.78739 : 1"
       inkscape:vp_z="744.09448 : 526.18109 : 1"
       inkscape:vp_y="0 : 1000 : 0"
       inkscape:vp_x="0 : 526.18109 : 1"
       sodipodi:type="inkscape:persp3d" />
    <inkscape:perspective
       id="perspective2423"
       inkscape:persp3d-origin="372.04724 : 350.78739 : 1"
       inkscape:vp_z="744.09448 : 526.18109 : 1"
       inkscape:vp_y="0 : 1000 : 0"
       inkscape:vp_x="0 : 526.18109 : 1"
       sodipodi:type="inkscape:persp3d" />
    <inkscape:perspective
       id="perspective2478"
       inkscape:persp3d-origin="372.04724 : 350.78739 : 1"
       inkscape:vp_z="744.09448 : 526.18109 : 1"
       inkscape:vp_y="0 : 1000 : 0"
       inkscape:vp_x="0 : 526.18109 : 1"
       sodipodi:type="inkscape:persp3d" />
    <inkscape:perspective
       id="perspective2513"
       inkscape:persp3d-origin="372.04724 : 350.78739 : 1"
       inkscape:vp_z="744.09448 : 526.18109 : 1"
       inkscape:vp_y="0 : 1000 : 0"
       inkscape:vp_x="0 : 526.18109 : 1"
       sodipodi:type="inkscape:persp3d" />
    <inkscape:perspective
       id="perspective2614"
       inkscape:persp3d-origin="372.04724 : 350.78739 : 1"
       inkscape:vp_z="744.09448 : 526.18109 : 1"
       inkscape:vp_y="0 : 1000 : 0"
       inkscape:vp_x="0 : 526.18109 : 1"
       sodipodi:type="inkscape:persp3d" />
  </defs>
  <sodipodi:namedview
     id="base"
     pagecolor="#ffffff"
     bordercolor="#666666"
     borderopacity="1.0"
     inkscape:pageopacity="0.0"
     inkscape:pageshadow="2"
     inkscape:zoom="5.5"
     inkscape:cx="25.417386"
     inkscape:cy="29.230444"
     inkscape:current-layer="layer1"
     showgrid="true"
     inkscape:document-units="px"
     inkscape:grid-bbox="true"
     inkscape:window-width="640"
     inkscape:window-height="688"
     inkscape:window-x="140"
     inkscape:window-y="140" />
  <metadata
     id="metadata2388">
    <rdf:RDF>
      <cc:Work
         rdf:about="">
        <dc:format>image/svg+xml</dc:format>
        <dc:type
           rdf:resource="http://purl.org/dc/dcmitype/StillImage" />
      </cc:Work>
    </rdf:RDF>
  </metadata>
  <g
     id="layer1"
     inkscape:label="Layer 1"
     inkscape:groupmode="layer">
    <path
       style="fill:#000000"
       d="M 49.665719,50.699022 C 46.897215,49.605608 43.089591,46.003056 41.726599,43.187492 C 40.52241,40.699967 40.48409,36.84319 41.641946,34.667239 C 42.691653,32.694535 45.495983,31.026506 47.779674,31.016488 C 48.724669,31.012342 49.497848,30.896123 49.497848,30.758222 C 49.497848,30.620322 48.581034,29.577527 47.460492,28.440901 L 45.423133,26.374308 L 40.702341,27.342202 C 38.105905,27.874543 35.00219,28.525541 33.805196,28.788863 L 31.628843,29.267631 L 31.628843,40.218241 L 31.628843,51.168852 L 28.76522,48.307141 L 25.901598,45.44543 L 25.672509,39.390897 L 25.443418,33.33636 L 17.582244,38.633292 L 9.7210725,43.93023 L 6.9295695,41.09505 C 5.394244,39.5357 4.1380673,38.223799 4.1380673,38.179717 C 4.1380673,38.135632 8.7506668,35.009366 14.388288,31.232455 C 20.879254,26.88385 24.555338,24.148143 24.41173,23.773104 C 23.893943,22.420888 20.476906,21.242769 16.967095,21.206356 C 12.957105,21.164756 10.804759,21.814888 8.0886239,23.888161 L 6.1232066,25.388398 L 3.1833733,22.549857 L 0.24354032,19.711315 L 1.4778829,18.702924 C 2.1567713,18.148309 3.909309,17.143497 5.3724098,16.470007 C 7.5938507,15.447442 8.6749185,15.245482 11.92712,15.245482 C 16.277832,15.245482 19.210956,16.285313 23.449264,19.330233 L 25.672509,20.927476 L 25.672509,14.055544 L 25.672509,7.1836122 L 15.972873,7.1836122 L 6.2732413,7.1836122 L 3.1883946,4.2054441 L 0.10354912,1.2272769 L 28.593915,1.2272769 L 57.084285,1.2272769 L 60.035977,4.2054441 L 62.987671,7.1836122 L 47.308257,7.1836122 L 31.628843,7.1836122 L 31.628843,14.797013 L 31.628843,22.410415 L 32.659747,22.12349 C 33.226745,21.965682 35.094883,21.588249 36.811166,21.284753 C 39.6304,20.786217 39.904057,20.642871 39.645563,19.800066 C 39.005726,17.713899 38.949589,15.14915 39.520145,14.070057 C 40.370946,12.460939 42.962484,10.849049 44.698764,10.849049 C 50.565076,10.849049 56.888714,18.827212 54.524243,23.245276 C 53.928434,24.358547 51.733121,25.510795 50.207869,25.510795 C 49.56536,25.510795 49.039667,25.67096 49.039667,25.866718 C 49.039667,26.062476 50.494121,27.660377 52.27179,29.417611 C 55.889141,32.99338 57.503156,35.28268 57.116745,36.289644 C 56.926675,36.784964 56.09594,36.965285 54.004107,36.965285 C 51.675497,36.965285 50.833738,37.184964 49.4271,38.159759 C 46.498218,40.189476 45.420305,44.72913 47.695758,45.45133 C 48.945951,45.848123 51.704573,44.870491 53.657875,43.338403 L 55.297915,42.052026 L 58.136594,44.916167 L 60.975278,47.780308 L 59.932906,48.678761 C 56.737209,51.433227 53.258068,52.117815 49.665719,50.699022 z M 48.096469,18.339064 C 48.622289,17.670596 48.943148,17.014317 48.809497,16.880664 C 48.498402,16.569569 46.177503,18.290101 45.937663,19.009614 C 45.595788,20.035244 47.139404,19.555779 48.096469,18.339064 z"
       id="path2620" />
  </g>
</svg>
