<?xml version="1.0" encoding="UTF-8" standalone="no"?>
<!-- Created with Inkscape (http://www.inkscape.org/) -->
<svg
   xmlns:dc="http://purl.org/dc/elements/1.1/"
   xmlns:cc="http://creativecommons.org/ns#"
   xmlns:rdf="http://www.w3.org/1999/02/22-rdf-syntax-ns#"
   xmlns:svg="http://www.w3.org/2000/svg"
   xmlns="http://www.w3.org/2000/svg"
   xmlns:sodipodi="http://sodipodi.sourceforge.net/DTD/sodipodi-0.dtd"
   xmlns:inkscape="http://www.inkscape.org/namespaces/inkscape"
   width="64px"
   height="64px"
   id="svg2383"
   sodipodi:version="0.32"
   inkscape:version="0.46"
   sodipodi:docname="devaanagarii_rii.svg"
   inkscape:output_extension="org.inkscape.output.svg.inkscape">
  <defs
     id="defs2385">
    <inkscape:perspective
       sodipodi:type="inkscape:persp3d"
       inkscape:vp_x="0 : 32 : 1"
       inkscape:vp_y="0 : 1000 : 0"
       inkscape:vp_z="64 : 32 : 1"
       inkscape:persp3d-origin="32 : 21.333333 : 1"
       id="perspective2391" />
    <inkscape:perspective
       id="perspective2426"
       inkscape:persp3d-origin="372.04724 : 350.78739 : 1"
       inkscape:vp_z="744.09448 : 526.18109 : 1"
       inkscape:vp_y="0 : 1000 : 0"
       inkscape:vp_x="0 : 526.18109 : 1"
       sodipodi:type="inkscape:persp3d" />
    <inkscape:perspective
       id="perspective2388"
       inkscape:persp3d-origin="372.04724 : 350.78739 : 1"
       inkscape:vp_z="744.09448 : 526.18109 : 1"
       inkscape:vp_y="0 : 1000 : 0"
       inkscape:vp_x="0 : 526.18109 : 1"
       sodipodi:type="inkscape:persp3d" />
    <inkscape:perspective
       id="perspective2423"
       inkscape:persp3d-origin="372.04724 : 350.78739 : 1"
       inkscape:vp_z="744.09448 : 526.18109 : 1"
       inkscape:vp_y="0 : 1000 : 0"
       inkscape:vp_x="0 : 526.18109 : 1"
       sodipodi:type="inkscape:persp3d" />
    <inkscape:perspective
       id="perspective2478"
       inkscape:persp3d-origin="372.04724 : 350.78739 : 1"
       inkscape:vp_z="744.09448 : 526.18109 : 1"
       inkscape:vp_y="0 : 1000 : 0"
       inkscape:vp_x="0 : 526.18109 : 1"
       sodipodi:type="inkscape:persp3d" />
    <inkscape:perspective
       id="perspective2513"
       inkscape:persp3d-origin="372.04724 : 350.78739 : 1"
       inkscape:vp_z="744.09448 : 526.18109 : 1"
       inkscape:vp_y="0 : 1000 : 0"
       inkscape:vp_x="0 : 526.18109 : 1"
       sodipodi:type="inkscape:persp3d" />
    <inkscape:perspective
       id="perspective2614"
       inkscape:persp3d-origin="372.04724 : 350.78739 : 1"
       inkscape:vp_z="744.09448 : 526.18109 : 1"
       inkscape:vp_y="0 : 1000 : 0"
       inkscape:vp_x="0 : 526.18109 : 1"
       sodipodi:type="inkscape:persp3d" />
    <inkscape:perspective
       id="perspective2649"
       inkscape:persp3d-origin="372.04724 : 350.78739 : 1"
       inkscape:vp_z="744.09448 : 526.18109 : 1"
       inkscape:vp_y="0 : 1000 : 0"
       inkscape:vp_x="0 : 526.18109 : 1"
       sodipodi:type="inkscape:persp3d" />
  </defs>
  <sodipodi:namedview
     id="base"
     pagecolor="#ffffff"
     bordercolor="#666666"
     borderopacity="1.0"
     inkscape:pageopacity="0.0"
     inkscape:pageshadow="2"
     inkscape:zoom="5.5"
     inkscape:cx="43.225973"
     inkscape:cy="29.230444"
     inkscape:current-layer="layer1"
     showgrid="true"
     inkscape:document-units="px"
     inkscape:grid-bbox="true"
     inkscape:window-width="640"
     inkscape:window-height="688"
     inkscape:window-x="140"
     inkscape:window-y="140" />
  <metadata
     id="metadata2388">
    <rdf:RDF>
      <cc:Work
         rdf:about="">
        <dc:format>image/svg+xml</dc:format>
        <dc:type
           rdf:resource="http://purl.org/dc/dcmitype/StillImage" />
      </cc:Work>
    </rdf:RDF>
  </metadata>
  <g
     id="layer1"
     inkscape:label="Layer 1"
     inkscape:groupmode="layer">
    <path
       style="fill:#000000"
       d="M 51.805403,57.878421 C 48.011105,56.64223 44.028937,53.243429 42.327041,49.788587 C 41.633208,48.380112 41.345308,47.044448 41.345308,45.234018 C 41.345308,43.249405 41.106702,42.28846 40.286075,40.968115 C 38.725115,38.456611 38.551745,34.261152 39.924255,32.212267 C 41.068098,30.504735 44.116289,28.796726 46.019788,28.796726 L 47.311268,28.796726 L 45.341474,26.826932 L 43.37168,24.857138 L 37.021711,26.117675 L 30.67174,27.378212 L 30.557074,37.566748 L 30.442405,47.755285 L 27.675211,45.012687 L 24.908014,42.270088 L 24.908014,36.814235 C 24.908014,33.813515 24.796102,31.358381 24.659321,31.358381 C 24.522539,31.358381 21.255172,33.471747 17.398504,36.054752 C 13.541835,38.637754 10.237527,40.751121 10.055599,40.751121 C 9.8736705,40.751121 8.603835,39.618314 7.2337419,38.233778 L 4.742664,35.716429 L 8.741406,33.022993 C 10.940714,31.541603 15.326382,28.615654 18.487335,26.520882 L 24.234519,22.71221 L 23.003625,21.730729 C 19.540093,18.969004 13.017676,19.264198 8.4771313,22.388175 L 6.4523762,23.781242 L 3.8948351,21.223702 L 1.3372946,18.666162 L 2.3315608,17.739861 C 2.878406,17.230397 4.3873649,16.295231 5.6848021,15.661712 C 7.7118456,14.671938 8.5844562,14.509344 11.886263,14.506194 C 16.398672,14.50189 19.111394,15.409551 22.666565,18.113221 L 24.908014,19.817819 L 24.908014,13.420234 L 24.908014,7.0226492 L 15.823149,7.0226492 L 6.7382828,7.0226492 L 4.0822253,4.342771 C 2.6213934,2.8688373 1.4261671,1.523968 1.4261671,1.3541723 C 1.4261671,1.1843758 13.977178,1.0454519 29.317302,1.0454519 L 57.208435,1.0454519 L 60.197035,4.0340506 L 63.185633,7.0226492 L 46.821953,7.0226492 L 30.458269,7.0226492 L 30.458269,13.893795 L 30.458269,20.764942 L 32.699719,20.477348 C 33.932516,20.319173 35.671395,20.002923 36.563896,19.774574 C 37.996587,19.408014 38.146585,19.249504 37.844725,18.421068 C 37.656678,17.90499 37.504191,16.57248 37.505863,15.459938 C 37.513527,10.359004 43.776025,8.7701447 48.286272,12.724835 C 51.063586,15.160045 52.232346,17.163017 52.232346,19.487451 C 52.232346,22.074821 50.992073,23.520296 48.418967,23.931752 C 47.463686,24.084507 46.682092,24.310184 46.682092,24.433255 C 46.682092,24.556326 48.411209,26.444389 50.524576,28.628952 C 52.815622,30.997184 54.36706,32.953389 54.36706,33.473934 C 54.36706,34.261741 54.102274,34.34698 51.655068,34.34698 C 48.315523,34.34698 46.512347,35.399219 45.014004,38.222365 C 43.581211,40.922008 43.964661,42.458892 46.071012,42.458892 C 47.785081,42.458892 49.807917,41.550443 51.396167,40.067385 L 52.481228,39.054189 L 55.166917,41.76396 L 57.852602,44.473737 L 56.271774,45.776791 C 54.358508,47.353865 51.493312,48.142715 49.023611,47.772359 C 47.248072,47.5061 47.187011,47.536076 46.906897,48.811431 C 46.022059,52.840071 50.003965,53.929607 54.122575,50.785801 L 55.970524,49.375231 L 58.595021,52.023265 L 61.219519,54.6713 L 60.248212,55.559708 C 58.043377,57.57636 54.155547,58.6441 51.805403,57.878421 z M 45.679425,17.456868 C 46.280702,16.855592 46.655929,16.246909 46.513257,16.10424 C 46.130772,15.721752 44.118703,16.901705 43.645415,17.786053 C 43.006679,18.979539 44.37882,18.757472 45.679425,17.456868 z"
       id="path2655" />
  </g>
</svg>
