<?xml version="1.0" encoding="UTF-8" standalone="no"?>
<!-- Created with Inkscape (http://www.inkscape.org/) -->
<svg
   xmlns:dc="http://purl.org/dc/elements/1.1/"
   xmlns:cc="http://creativecommons.org/ns#"
   xmlns:rdf="http://www.w3.org/1999/02/22-rdf-syntax-ns#"
   xmlns:svg="http://www.w3.org/2000/svg"
   xmlns="http://www.w3.org/2000/svg"
   xmlns:sodipodi="http://sodipodi.sourceforge.net/DTD/sodipodi-0.dtd"
   xmlns:inkscape="http://www.inkscape.org/namespaces/inkscape"
   width="64px"
   height="64px"
   id="svg2383"
   sodipodi:version="0.32"
   inkscape:version="0.46"
   sodipodi:docname="devaanagarii_u.svg"
   inkscape:output_extension="org.inkscape.output.svg.inkscape">
  <defs
     id="defs2385">
    <inkscape:perspective
       sodipodi:type="inkscape:persp3d"
       inkscape:vp_x="0 : 32 : 1"
       inkscape:vp_y="0 : 1000 : 0"
       inkscape:vp_z="64 : 32 : 1"
       inkscape:persp3d-origin="32 : 21.333333 : 1"
       id="perspective2391" />
    <inkscape:perspective
       id="perspective2426"
       inkscape:persp3d-origin="372.04724 : 350.78739 : 1"
       inkscape:vp_z="744.09448 : 526.18109 : 1"
       inkscape:vp_y="0 : 1000 : 0"
       inkscape:vp_x="0 : 526.18109 : 1"
       sodipodi:type="inkscape:persp3d" />
    <inkscape:perspective
       id="perspective2388"
       inkscape:persp3d-origin="372.04724 : 350.78739 : 1"
       inkscape:vp_z="744.09448 : 526.18109 : 1"
       inkscape:vp_y="0 : 1000 : 0"
       inkscape:vp_x="0 : 526.18109 : 1"
       sodipodi:type="inkscape:persp3d" />
    <inkscape:perspective
       id="perspective2423"
       inkscape:persp3d-origin="372.04724 : 350.78739 : 1"
       inkscape:vp_z="744.09448 : 526.18109 : 1"
       inkscape:vp_y="0 : 1000 : 0"
       inkscape:vp_x="0 : 526.18109 : 1"
       sodipodi:type="inkscape:persp3d" />
    <inkscape:perspective
       id="perspective2478"
       inkscape:persp3d-origin="372.04724 : 350.78739 : 1"
       inkscape:vp_z="744.09448 : 526.18109 : 1"
       inkscape:vp_y="0 : 1000 : 0"
       inkscape:vp_x="0 : 526.18109 : 1"
       sodipodi:type="inkscape:persp3d" />
  </defs>
  <sodipodi:namedview
     id="base"
     pagecolor="#ffffff"
     bordercolor="#666666"
     borderopacity="1.0"
     inkscape:pageopacity="0.0"
     inkscape:pageshadow="2"
     inkscape:zoom="5.5"
     inkscape:cx="42.696749"
     inkscape:cy="29.230444"
     inkscape:current-layer="layer1"
     showgrid="true"
     inkscape:document-units="px"
     inkscape:grid-bbox="true"
     inkscape:window-width="640"
     inkscape:window-height="688"
     inkscape:window-x="140"
     inkscape:window-y="140" />
  <metadata
     id="metadata2388">
    <rdf:RDF>
      <cc:Work
         rdf:about="">
        <dc:format>image/svg+xml</dc:format>
        <dc:type
           rdf:resource="http://purl.org/dc/dcmitype/StillImage" />
      </cc:Work>
    </rdf:RDF>
  </metadata>
  <g
     id="layer1"
     inkscape:label="Layer 1"
     inkscape:groupmode="layer">
    <path
       style="fill:#000000"
       d="M 32.241512,62.338941 C 25.887531,60.691171 20.918594,57.417161 12.916764,49.605961 C 9.6759391,46.442341 6.8248159,43.482944 6.5809331,43.029512 C 6.2747071,42.460172 6.4155845,41.861687 7.0362561,41.095192 L 7.9350003,39.985289 L 13.86958,45.900665 C 20.894551,52.9029 24.337209,55.026817 29.30905,55.425906 C 33.663544,55.775446 36.492607,54.880459 39.456416,52.215736 C 43.035554,48.997785 44.670953,45.344714 44.646189,40.623087 C 44.625974,36.768659 43.272581,32.948521 41.715582,32.351044 C 41.341799,32.20761 40.176584,32.642858 39.126214,33.318262 C 38.075846,33.993666 36.352278,34.819043 35.296063,35.152435 L 33.375672,35.758604 L 29.95379,32.362941 C 28.071754,30.495327 26.697206,28.828525 26.899239,28.658937 C 27.101273,28.489351 28.196706,28.086388 29.333537,27.763464 C 31.878685,27.040498 36.141195,23.301914 37.583318,20.527705 C 39.580935,16.684888 38.801978,10.544369 36.164431,9.342623 C 35.380831,8.9855901 31.351113,8.7805937 25.116361,8.7805937 L 15.30181,8.7805937 L 11.595505,5.0493874 L 7.8892018,1.3181819 L 29.28145,1.3181819 L 50.6737,1.3181819 L 54.380001,5.0493874 L 58.086302,8.7805937 L 49.527832,8.7805937 L 40.969358,8.7805937 L 42.872517,11.72515 C 43.919255,13.344655 45.064038,15.699633 45.41648,16.958433 C 46.205587,19.776845 45.860577,24.876082 44.717851,27.2842 L 43.882197,29.04521 L 46.650642,32.718363 C 50.644572,38.017483 51.636445,40.777215 51.640495,46.601838 C 51.643516,50.955787 51.511356,51.608618 50.009565,54.658064 C 47.496126,59.761693 43.54802,62.368218 37.713948,62.775586 C 36.072217,62.890224 33.609621,62.693734 32.241512,62.338941 z"
       id="path2484" />
  </g>
</svg>
