<?xml version="1.0" encoding="UTF-8" standalone="no"?>
<!-- Created with Inkscape (http://www.inkscape.org/) -->
<svg
   xmlns:dc="http://purl.org/dc/elements/1.1/"
   xmlns:cc="http://creativecommons.org/ns#"
   xmlns:rdf="http://www.w3.org/1999/02/22-rdf-syntax-ns#"
   xmlns:svg="http://www.w3.org/2000/svg"
   xmlns="http://www.w3.org/2000/svg"
   xmlns:sodipodi="http://sodipodi.sourceforge.net/DTD/sodipodi-0.dtd"
   xmlns:inkscape="http://www.inkscape.org/namespaces/inkscape"
   width="64px"
   height="64px"
   id="svg2383"
   sodipodi:version="0.32"
   inkscape:version="0.46"
   sodipodi:docname="devaanagarii_uu.svg"
   inkscape:output_extension="org.inkscape.output.svg.inkscape">
  <defs
     id="defs2385">
    <inkscape:perspective
       sodipodi:type="inkscape:persp3d"
       inkscape:vp_x="0 : 32 : 1"
       inkscape:vp_y="0 : 1000 : 0"
       inkscape:vp_z="64 : 32 : 1"
       inkscape:persp3d-origin="32 : 21.333333 : 1"
       id="perspective2391" />
    <inkscape:perspective
       id="perspective2426"
       inkscape:persp3d-origin="372.04724 : 350.78739 : 1"
       inkscape:vp_z="744.09448 : 526.18109 : 1"
       inkscape:vp_y="0 : 1000 : 0"
       inkscape:vp_x="0 : 526.18109 : 1"
       sodipodi:type="inkscape:persp3d" />
    <inkscape:perspective
       id="perspective2388"
       inkscape:persp3d-origin="372.04724 : 350.78739 : 1"
       inkscape:vp_z="744.09448 : 526.18109 : 1"
       inkscape:vp_y="0 : 1000 : 0"
       inkscape:vp_x="0 : 526.18109 : 1"
       sodipodi:type="inkscape:persp3d" />
    <inkscape:perspective
       id="perspective2423"
       inkscape:persp3d-origin="372.04724 : 350.78739 : 1"
       inkscape:vp_z="744.09448 : 526.18109 : 1"
       inkscape:vp_y="0 : 1000 : 0"
       inkscape:vp_x="0 : 526.18109 : 1"
       sodipodi:type="inkscape:persp3d" />
    <inkscape:perspective
       id="perspective2478"
       inkscape:persp3d-origin="372.04724 : 350.78739 : 1"
       inkscape:vp_z="744.09448 : 526.18109 : 1"
       inkscape:vp_y="0 : 1000 : 0"
       inkscape:vp_x="0 : 526.18109 : 1"
       sodipodi:type="inkscape:persp3d" />
    <inkscape:perspective
       id="perspective2513"
       inkscape:persp3d-origin="372.04724 : 350.78739 : 1"
       inkscape:vp_z="744.09448 : 526.18109 : 1"
       inkscape:vp_y="0 : 1000 : 0"
       inkscape:vp_x="0 : 526.18109 : 1"
       sodipodi:type="inkscape:persp3d" />
  </defs>
  <sodipodi:namedview
     id="base"
     pagecolor="#ffffff"
     bordercolor="#666666"
     borderopacity="1.0"
     inkscape:pageopacity="0.0"
     inkscape:pageshadow="2"
     inkscape:zoom="5.5"
     inkscape:cx="36.114134"
     inkscape:cy="29.230444"
     inkscape:current-layer="layer1"
     showgrid="true"
     inkscape:document-units="px"
     inkscape:grid-bbox="true"
     inkscape:window-width="640"
     inkscape:window-height="688"
     inkscape:window-x="140"
     inkscape:window-y="140" />
  <metadata
     id="metadata2388">
    <rdf:RDF>
      <cc:Work
         rdf:about="">
        <dc:format>image/svg+xml</dc:format>
        <dc:type
           rdf:resource="http://purl.org/dc/dcmitype/StillImage" />
      </cc:Work>
    </rdf:RDF>
  </metadata>
  <g
     id="layer1"
     inkscape:label="Layer 1"
     inkscape:groupmode="layer">
    <path
       style="fill:#000000"
       d="M 22.573093,52.808663 C 17.211482,51.418243 13.018598,48.655572 6.2665016,42.064333 C 3.531833,39.394809 1.1259999,36.897613 0.9202079,36.514998 C 0.66180787,36.034577 0.78068382,35.529567 1.3044167,34.882782 L 2.0627951,33.946225 L 7.0705063,38.937732 C 12.99831,44.846352 15.903289,46.638554 20.098626,46.975312 C 23.773031,47.270262 26.160247,46.515054 28.661166,44.26651 C 31.681311,41.551142 33.061293,38.468612 33.040395,34.484411 C 33.023338,31.231972 31.881318,28.008467 30.567494,27.504304 C 30.252089,27.383271 29.268857,27.750541 28.382537,28.320461 C 27.496214,28.890379 26.041836,29.586848 25.150581,29.868171 L 23.530119,30.379667 L 20.64267,27.514343 C 19.054572,25.938414 17.894701,24.531935 18.065181,24.388834 C 18.23566,24.245734 19.160008,23.905705 20.119287,23.633216 C 22.266932,23.023164 25.863719,19.868476 27.080608,17.527544 C 28.766237,14.284903 28.10894,9.1034142 25.883328,8.0893587 C 25.22211,7.7880872 21.821757,7.6151075 16.560753,7.6151075 L 8.2790493,7.6151075 L 5.1515991,4.4666442 L 2.0241492,1.3181813 L 29.480076,1.3181813 L 56.936004,1.3181813 L 60.171348,4.4666442 L 63.406696,7.6151075 L 46.642932,7.6151075 L 29.879173,7.6151075 L 31.223927,9.5696419 C 34.028145,13.645435 34.789795,17.841511 33.502061,22.120326 C 33.024237,23.708019 33.000774,24.237643 33.397113,24.48949 C 34.848805,25.411953 37.320747,24.39497 40.598319,21.526839 C 44.501772,18.111018 47.239909,17.81231 52.151205,20.266516 C 55.047015,21.713568 58.727437,25.467186 60.167762,28.442505 C 62.883597,34.052662 60.957226,40.301071 55.766648,42.718046 C 51.475676,44.716124 46.715527,43.617154 42.093562,39.561347 L 40.204485,37.903668 L 41.121833,36.966324 C 42.027534,36.040881 42.054187,36.038896 43.220809,36.809985 C 47.33148,39.526965 54.369499,35.473092 55.321166,29.840227 C 55.685565,27.683359 54.921302,25.407367 53.724929,25.086602 C 51.147815,24.395638 49.868978,24.780723 47.067919,27.091165 C 43.163809,30.311459 42.007089,30.828856 39.170477,30.623674 L 36.801801,30.452339 L 37.87345,32.991908 C 38.769658,35.115721 38.9451,36.18598 38.9451,39.529396 C 38.9451,43.200446 38.832353,43.756244 37.566113,46.327392 C 35.445228,50.633932 32.113739,52.833369 27.190838,53.177114 C 25.805515,53.273847 23.727529,53.108045 22.573093,52.808663 z"
       id="path2519" />
  </g>
</svg>
